<svg xmlns="http://www.w3.org/2000/svg" width="933.333" height="933.333" viewBox="0 0 700 700" preserveAspectRatio="xMidYMid meet"><path d="M326 17c-97.7 7.6-184.8 55.4-243.6 133.6-35.7 47.5-57.5 103.6-64.6 165.9-1.5 14.2-1.5 52.8 0 67 4.9 42.6 15.4 78.9 33.7 115.5C126 648.7 300.2 719.9 458.8 665.5 605.1 615.4 698.3 469 681.9 315 666.4 168.8 556.3 49.2 412.4 22.1c-25.5-4.8-62.1-7-86.4-5.1zm63 58.5c61.7 9.6 114.3 36 156.9 78.6 43 43.1 69 95.3 78.8 157.9 2.5 16.3 2.5 59.7 0 76-8.1 51.9-27 95.9-58.2 135-10.1 12.8-29.7 32.4-42.5 42.7-39.6 31.8-83.6 50.8-136 59-16.3 2.5-59.7 2.5-76 0-51.9-8.1-96-27.1-135-58.2-12.7-10.1-32.3-29.6-42.7-42.5-31.6-39.3-50.8-83.5-59-136-2.5-16.3-2.5-59.7 0-76 8.1-52 27-95.9 58.2-135 10.1-12.7 29.6-32.3 42.5-42.7 42.1-33.8 91.5-54.2 146-60.2 12.9-1.4 54.5-.6 67 1.4zm-41.7 13.7c-1.2 1.5-22.3 66.3-22.3 68.3 0 .8-1.5 1.7-3.7 2.1-24.8 4.2-42 9.9-61.9 20.3-10.2 5.4-22.6 13.4-29.6 19.2l-4.7 4-21.8-11c-15.5-7.8-22.1-10.6-23-9.9s1.5 6.3 9.7 22.7l10.9 21.8-6 7.9c-17.5 23.4-29.6 49.9-35.4 78.1-1.3 6.4-2.8 12-3.2 12.4-.4.3-15.6 5.5-33.8 11.4-34.6 11.2-36.9 12.2-33.2 15.6.6.6 16.1 5.9 34.2 11.8l33 10.7 1.7 9.7c5.6 32.2 18.9 62.3 38.7 87.6l1.8 2.4 17.2-25.4 55.8-83 38.6-57.6 63.5-42.4 79.1-53.2L470 201c1.8-1.1 1.5-1.3-13-11.1-20.6-13.9-44.3-23.6-69.6-28.6-10-2-13.4-3-13.4-4.2 0-2.1-21-66.4-22.2-67.9-.6-.6-1.6-1.2-2.3-1.2s-1.7.6-2.2 1.2zM490 228.8l-53.9 81.5-49.4 74.6-39.1 25.7L220 496.1c0 .5 3.5 3.7 7.8 7.1 27.8 22.1 58.2 35.4 94.2 41.2l3.5.6 10.4 32.3c5.7 17.7 11 32.9 11.8 33.7 3 3.3 4.7-.4 15.3-33.1l10.6-32.4 3.4-.7 13.8-2.8c27-5.5 58.7-20.4 79.5-37.4l5.8-4.7 19.6 10.1c10.8 5.5 20.2 10 20.9 10s1.6-.5 1.9-1c.4-.6-3.9-9.8-9.4-20.6-5.6-10.8-10.1-20-10.1-20.5 0-.6 2.7-4.6 6-8.9 19.1-25.2 30.7-52.3 37.2-87.4l1.3-6.9 8.5-2.8 33.7-11c14.2-4.6 25.4-8.7 25.7-9.5 1.1-2.8-.7-4.4-6.8-6.3L570.2 334c-26.6-8.7-28.2-9.3-28.2-11.6 0-8.2-8.3-36.2-15.4-51.7-6.6-14.5-19-33.8-29.2-45.5l-2.9-3.2-4.5 6.8z"/></svg>
