<svg width="512" height="512" viewBox="0 0 512 512" xmlns="http://www.w3.org/2000/svg" style="background:#fff"><title>404</title><g fill="none" fill-rule="evenodd"><g transform="translate(11 11)"><rect fill="#3371E3" width="86" height="86" rx="10"/><rect fill="#3371E3" x="101" width="86" height="86" rx="10"/><rect fill="#3371E3" x="202" width="86" height="86" rx="10"/><rect fill="#3371E3" x="303" width="86" height="86" rx="10"/><rect fill="#EFEFEF" x="404" width="86" height="86" rx="10"/></g><g transform="translate(11 112)"><rect fill="#3371E3" width="86" height="86" rx="10"/><rect fill="#EFEFEF" x="303" width="86" height="86" rx="10"/><rect fill="#3371E3" x="404" width="86" height="86" rx="10"/></g><g transform="translate(11 213)"><rect fill="#EFEFEF" width="86" height="86" rx="10"/><rect fill="#3371E3" x="303" width="86" height="86" rx="10"/><rect fill="#EFEFEF" x="404" width="86" height="86" rx="10"/></g><g transform="translate(11 314)"><rect fill="#3371E3" width="86" height="86" rx="10"/><rect fill="#3371E3" x="101" width="86" height="86" rx="10"/><rect fill="#EFEFEF" x="202" width="86" height="86" rx="10"/><rect fill="#3371E3" x="303" width="86" height="86" rx="10"/><rect fill="#3371E3" x="404" width="86" height="86" rx="10"/></g><g transform="translate(11 415)"><rect fill="#3371E3" width="86" height="86" rx="10"/><rect fill="#EFEFEF" x="101" width="86" height="86" rx="10"/><rect fill="#3371E3" x="202" width="86" height="86" rx="10"/><rect fill="#3371E3" x="303" width="86" height="86" rx="10"/><rect fill="#EFEFEF" x="404" width="86" height="86" rx="10"/></g><g stroke="#696969" stroke-width="4" stroke-linecap="round"><path d="M152.541 258.459l-15.048 15.048M274.004 136.996L259.77 151.23M260.835 260.835l12.193 12.193M137.455 137.455L150 150M205 111.5v18.527M205 280v19.503M111.5 206h18.527M281.745 206H299.5"/></g></g></svg>