<svg width="2390" height="600" viewBox="0 0 2390 600" xmlns="http://www.w3.org/2000/svg"><title>Logo white text</title><g fill="#FFF" fill-rule="evenodd"><path d="M178.216 226.107l-20.927-4.44a.503.503 0 0 0-.479.83l14.599 16.224a142.872 142.872 0 0 0-13.123 46.623l-42.33 13.77c-.927.303-.927 1.615 0 1.916l42.308 13.763c2.024 19.836 8.13 38.786 17.901 55.867 3.007 5.255 10.212 6.176 14.493 1.895l.032-.03c2.96-2.96 3.518-7.523 1.446-11.16-10.264-17.994-16.16-38.789-16.223-60.931-.196-68.29 55.435-124.268 123.724-124.484 21.972-.07 42.639 5.604 60.584 15.597 3.635 2.024 8.16 1.445 11.103-1.497l.001-.002c4.35-4.349 3.299-11.632-2.076-14.626-16.722-9.32-35.19-15.154-54.496-17.123l-13.758-42.295c-.303-.928-1.615-.928-1.916 0l-13.759 42.294c-18.673 1.903-36.563 7.42-52.847 16.211l-16.353-14.716a.504.504 0 0 0-.83.48l4.642 21.873a144.308 144.308 0 0 0-22.408 18.917 141.889 141.889 0 0 0-19.308 25.044zm107.16 215.745l13.702 42.117c.303.928 1.615.928 1.916 0l13.7-42.117c16.924-1.718 33.205-6.404 48.23-13.804l15.837 14.25a.505.505 0 0 0 .83-.478l-4.373-20.608a143.649 143.649 0 0 0 25.595-20.363c8.39-8.39 15.605-17.642 21.562-27.556l21.646 4.593a.503.503 0 0 0 .479-.83l-15.166-16.855c6.612-14.197 10.836-29.46 12.463-45.286l42.682-13.884c.928-.303.928-1.615 0-1.916l-42.682-13.885c-2.223-21.624-9.293-42.194-20.68-60.433-3.147-5.038-10.172-5.829-14.372-1.629a9.228 9.228 0 0 0-1.315 11.404c12.083 19.37 18.979 42.293 18.723 66.812C423.457 368.39 369.07 423.1 302.07 424.18c-24.345.392-47.137-6.27-66.472-18.065a9.223 9.223 0 0 0-11.323 1.364c-4.22 4.22-3.404 11.296 1.692 14.406 17.99 10.987 38.194 17.811 59.41 19.967zm-2.713 99.751L99.75 435.998a35.108 35.108 0 0 1-17.555-30.405v-211.21a35.108 35.108 0 0 1 17.555-30.408L282.663 58.37a35.114 35.114 0 0 1 35.11 0l182.914 105.605a35.111 35.111 0 0 1 17.555 30.407v211.21a35.11 35.11 0 0 1-17.555 30.406L317.772 541.603a35.108 35.108 0 0 1-35.109 0zm39.817-217.027L412.257 188.6c1.632-2.473-1.314-5.397-3.776-3.748l-135.15 90.608-90.518 135.215c-1.648 2.462 1.28 5.406 3.751 3.772l135.916-89.87z" fill-rule="nonzero"/><path d="M865.417 433l-97.66-174.04 77.9-91.96h-64.22l-74.48 90.82c-7.22 8.74-17.1 20.9-20.9 26.98.38-8.36.76-32.3.76-42.18V167h-53.2v266h53.2v-78.28l42.56-50.16 72.2 128.44h63.84zm200.083 0V233.5h-52.44v109.06c0 34.58-12.54 45.22-34.2 45.22-21.66 0-33.82-10.64-33.82-46.36V233.5H892.6v112.48c0 56.24 22.8 91.2 73.72 91.2 20.9 0 37.62-7.98 46.74-17.48V433h52.44zm219.083-97.28c0 59.66-28.12 101.46-77.52 101.46-17.48 0-32.68-6.84-42.18-15.58V433h-52.44V182.2l52.44-26.22v90.06c9.88-8.74 23.18-16.72 42.18-16.72 42.56 0 77.52 31.92 77.52 106.4zm-53.2 1.14c0-41.04-13.68-58.14-34.2-58.14-16.34 0-24.7 6.84-32.3 16.72v75.24c7.98 11.02 20.14 17.1 35.34 17.1 20.14 0 31.16-17.48 31.16-50.92zm253.284-3.42c0 7.6-.38 12.92-.76 16.72h-119.32c1.9 27.36 22.04 37.62 41.04 37.62 14.44 0 26.6-5.32 34.2-14.06l37.24 31.16c-15.96 20.52-44.84 32.3-71.44 32.3-57.38 0-93.86-40.66-93.86-103.74 0-61.18 38.38-104.12 88.92-104.12 53.2 0 83.98 47.12 83.98 104.12zm-50.92-22.8c-1.52-17.86-12.16-35.72-35.72-35.72-19 0-30.78 15.58-32.68 35.72h68.4zM1684.75 433h-52.44v-13.3c-9.5 9.88-26.22 17.48-44.84 17.48-37.24 0-74.48-22.8-74.48-71.06 0-44.08 35.72-66.12 80.94-66.12 18.24 0 30.02 3.8 38.38 7.98v-9.88c0-14.06-9.5-25.46-28.5-25.46-23.94 0-36.48 3.42-54.72 13.3l-20.14-36.48c23.18-13.3 42.56-20.14 74.86-20.14 48.26 0 80.94 25.08 80.94 69.92V433zm-52.44-58.52V349.4c-9.12-5.7-17.86-8.36-36.48-8.36-19.76 0-30.4 9.12-30.4 25.08 0 14.06 7.98 26.6 30.4 26.6 17.1 0 30.78-8.74 36.48-18.24zm269.623-38.76c0 59.66-28.12 101.46-77.52 101.46-17.48 0-32.68-6.84-42.18-15.58v58.52l-52.44 26.22V233.5h52.44v12.54c9.88-8.74 23.18-16.72 42.18-16.72 42.56 0 77.52 31.92 77.52 106.4zm-53.2 1.14c0-41.04-13.68-58.14-34.2-58.14-16.34 0-24.7 6.84-32.3 16.72v75.24c7.98 11.02 20.14 17.1 35.34 17.1 20.14 0 31.16-17.48 31.16-50.92zm262.784-1.14c0 59.66-28.12 101.46-77.52 101.46-17.48 0-32.68-6.84-42.18-15.58v58.52l-52.44 26.22V233.5h52.44v12.54c9.88-8.74 23.18-16.72 42.18-16.72 42.56 0 77.52 31.92 77.52 106.4zm-53.2 1.14c0-41.04-13.68-58.14-34.2-58.14-16.34 0-24.7 6.84-32.3 16.72v75.24c7.98 11.02 20.14 17.1 35.34 17.1 20.14 0 31.16-17.48 31.16-50.92zm248.343 38c0-39.9-30.78-52.82-66.5-64.6-35.34-11.4-41.42-14.82-41.42-23.18 0-8.74 5.7-12.92 26.98-12.92 16.72 0 38.38 5.32 58.14 15.96l16.72-41.42c-21.28-11.78-48.64-19.38-73.72-19.38-46.74 0-79.8 17.86-79.8 59.28 0 42.18 30.78 53.96 78.66 68.4 22.04 6.46 29.26 11.02 29.26 20.14 0 10.26-6.08 15.2-26.6 15.2-25.46 0-47.88-6.46-69.16-18.24l-17.48 39.9c21.28 14.06 52.06 23.18 83.6 23.18 44.84 0 81.32-16.34 81.32-62.32z"/></g></svg>