<?xml version="1.0" encoding="UTF-8" standalone="no"?>
<svg
   width="1367"
   height="600"
   viewBox="0 0 1367 600"
   fill="none"
   version="1.1"
   id="svg926"
   sodipodi:docname="Ænix_gradient_arrows5.svg"
   inkscape:export-filename="/Users/kvaps/Downloads/Ænix_gradient_arrows5.png"
   inkscape:export-xdpi="136.23994"
   inkscape:export-ydpi="136.23994"
   inkscape:version="1.1.1 (c3084ef, 2021-09-22)"
   xmlns:inkscape="http://www.inkscape.org/namespaces/inkscape"
   xmlns:sodipodi="http://sodipodi.sourceforge.net/DTD/sodipodi-0.dtd"
   xmlns:xlink="http://www.w3.org/1999/xlink"
   xmlns="http://www.w3.org/2000/svg"
   xmlns:svg="http://www.w3.org/2000/svg">
  <defs
     id="defs930">
    <linearGradient
       inkscape:collect="always"
       id="linearGradient2620">
      <stop
         style="stop-color:#00a3ff;stop-opacity:1;"
         offset="0"
         id="stop2616" />
      <stop
         style="stop-opacity:1;stop-color:#00ccff"
         offset="1"
         id="stop2618" />
    </linearGradient>
    <linearGradient
       inkscape:collect="always"
       xlink:href="#linearGradient2620"
       id="linearGradient916"
       gradientUnits="userSpaceOnUse"
       x1="393"
       y1="101"
       x2="620"
       y2="346"
       spreadMethod="pad" />
    <linearGradient
       inkscape:collect="always"
       xlink:href="#linearGradient2620"
       id="linearGradient918"
       gradientUnits="userSpaceOnUse"
       x1="393"
       y1="101"
       x2="620"
       y2="346"
       spreadMethod="pad" />
    <linearGradient
       inkscape:collect="always"
       xlink:href="#linearGradient2620"
       id="linearGradient920"
       gradientUnits="userSpaceOnUse"
       x1="393"
       y1="101"
       x2="620"
       y2="346"
       spreadMethod="pad" />
    <linearGradient
       inkscape:collect="always"
       xlink:href="#linearGradient2620"
       id="linearGradient922"
       gradientUnits="userSpaceOnUse"
       x1="393"
       y1="101"
       x2="620"
       y2="346"
       spreadMethod="pad" />
  </defs>
  <sodipodi:namedview
     id="namedview928"
     pagecolor="#ffffff"
     bordercolor="#666666"
     borderopacity="1.0"
     inkscape:pageshadow="2"
     inkscape:pageopacity="0.0"
     inkscape:pagecheckerboard="0"
     showgrid="false"
     showguides="true"
     inkscape:guide-bbox="true"
     inkscape:zoom="1.340409"
     inkscape:cx="807.58931"
     inkscape:cy="293.56711"
     inkscape:window-width="3440"
     inkscape:window-height="1387"
     inkscape:window-x="0"
     inkscape:window-y="25"
     inkscape:window-maximized="1"
     inkscape:current-layer="svg926" />
  <path
     d="m 978.64435,452.91543 -1.11336,1.34095 h 1.74372 73.91579 0.393 l 0.2456,-0.30945 48.3248,-60.83377 48.6687,60.83622 0.2456,0.307 h 0.3929 74.3333 1.7437 l -1.1133,-1.34259 -86.9815,-104.46528 81.1036,-98.13713 1.1051,-1.34013 h -1.7355 -73.9158 -0.4011 l -0.2456,0.31354 -42.8644,54.7111 -43.2001,-54.71273 -0.2456,-0.31191 h -0.393 -73.9158 -1.74373 l 1.11337,1.34013 81.12816,98.16824 z"
     fill="#00a3ff"
     stroke="#00a3ff"
     stroke-width="1.6373"
     id="path918"
     style="mix-blend-mode:normal;fill:url(#linearGradient916);fill-opacity:1;stroke:#0000ff;stroke-width:0;stroke-miterlimit:4;stroke-dasharray:none" />
  <path
     d="m 890.09851,212.37477 v 0.81843 h 0.98518 70.93939 0.98517 v -0.81843 -58.19002 -0.81843 h -0.98517 -70.93939 -0.98518 v 0.81843 z m 2.61172,241.84085 v 0.81842 h 0.98519 65.71699 0.98517 v -0.81842 -202.63414 -0.81843 h -0.98517 -65.71699 -0.98519 v 0.81843 z"
     fill="#00a3ff"
     stroke="#00a3ff"
     stroke-width="1.79589"
     id="path920"
     style="mix-blend-mode:normal;fill:url(#linearGradient918);fill-opacity:1;stroke:#0000ff;stroke-width:0;stroke-miterlimit:4;stroke-dasharray:none" />
  <path
     d="m 643.655,453.43773 v 0.81865 h 0.81865 65.47797 0.81865 v -0.81865 -113.42785 c 0,-8.99204 1.85424,-16.85679 5.53734,-23.61883 3.68555,-6.76613 8.77673,-11.89251 15.28007,-15.40205 v 0 l 0.01,-0.005 c 6.79723,-3.78544 14.74959,-5.69207 23.88407,-5.69207 7.12879,0 12.89699,1.36141 17.35944,4.02366 l 0.0246,0.0147 0.0254,0.0131 c 4.70068,2.37572 8.19139,6.47633 10.44513,12.39352 l 0.008,0.0229 0.01,0.0213 c 2.53781,5.65195 3.83128,13.11475 3.83128,22.43343 v 119.22306 0.81865 h 0.81865 65.47714 0.81865 V 453.4376 331.31652 c 0,-19.38641 -2.75475,-35.37708 -8.30764,-47.93433 -5.55535,-12.83968 -13.90802,-22.36711 -25.06375,-28.53481 -11.14426,-6.43785 -25.31588,-9.62731 -42.46411,-9.62731 -16.892,0 -32.06401,3.75432 -45.49476,11.28016 -9.51433,5.24836 -17.34962,12.17904 -23.50013,20.78385 v -27.10545 -0.81865 h -0.81864 -64.17714 -0.81865 v 0.81865 z"
     fill="#00a3ff"
     stroke="#00a3ff"
     stroke-width="1.6373"
     id="path922"
     style="mix-blend-mode:normal;fill:url(#linearGradient920);fill-opacity:1;stroke:#0000ff;stroke-width:0;stroke-miterlimit:4;stroke-dasharray:none" />
  <path
     d="m 121.56296,453.00221 -0.78817,1.25417 h 1.48132 39.66311 39.66311 0.46745 l 0.23741,-0.40196 43.63151,-73.76596 h 149.42055 l 15.85149,73.522 0.13917,0.64592 h 0.66147 198.24312 0.81864 v -0.81865 -58.65535 -0.81865 H 610.2345 466.74178 l -18.2354,-83.6798 h 161.24429 0.81865 v -0.81865 -59.13999 -0.81864 h -0.81865 -174.53013 l -16.98123,-78.34786 h 191.99519 0.81864 v -0.81865 l 28.26259,-29.33233 -28.26259,-29.3232 v -0.81865 H 610.2345 337.01791 336.5652 l -0.24068,0.38306 z M 355.26477,195.10827 382.36531,319.79581 H 281.367 Z"
     fill="#00a3ff"
     stroke="#00a3ff"
     stroke-width="1.6373"
     id="path924"
     style="mix-blend-mode:normal;fill:url(#linearGradient922);fill-opacity:1;stroke:#0000ff;stroke-width:0;stroke-miterlimit:4;stroke-dasharray:none"
     sodipodi:nodetypes="ccccccccccccccccccccccccccccccccccccccccccc" />
</svg>
