<?xml version="1.0" encoding="utf-8"?>
<!-- Generator: Adobe Illustrator 26.0.2, SVG Export Plug-In . SVG Version: 6.00 Build 0)  -->
<svg version="1.2" baseProfile="tiny" xmlns="http://www.w3.org/2000/svg" xmlns:xlink="http://www.w3.org/1999/xlink" x="0px"
	 y="0px" viewBox="0 0 416.6586609 201.4219055" overflow="visible" xml:space="preserve">
<g id="BKGD">
</g>
<g id="LOGO">
	<g id="pre">
	</g>
	<g id="inifinity">
	</g>
	<g id="final">
	</g>
	<g id="search_BL">
	</g>
	<g id="SAFE">
	</g>
	<g id="exports">
	</g>
	<g id="STALLIONS">
		<g>
			<g>
				<path fill="#020D2D" d="M106.21595,122.2335587v4.617897c0,2.1646118-1.010643,3.0305939-3.0305939,3.0305939H84.8577576
					c-2.1646194,0-3.0306015-0.8659821-3.0306015-3.0305939v-32.613945c0-9.5244522-5.9165344-14.431015-13.7090225-14.431015
					c-5.772541,0-10.967762,2.5979462-15.0083351,5.9172058v32.0366211l7.6484947,1.5873032
					c1.5872993,0.2886581,2.3086128,1.2986298,2.3086128,2.8859329v4.617897c0,2.1646118-1.0099754,3.0305939-3.0299263,3.0305939
					H31.8962688c-2.0199528,0-3.0306015-0.8659821-3.0306015-3.0305939v-4.617897
					c0-1.5873032,0.577322-2.5972748,2.3092861-2.8859329l7.50383-1.5873032V40.9873619l-7.50383-1.5872993
					c-1.7319641-0.2886581-2.3092861-1.2986336-2.3092861-2.8859329v-4.617897c0-2.1646175,1.0106487-3.0305996,3.0306015-3.0305996
					h17.1729527c2.1646194,0,2.7419395,0.7213154,3.0306015,3.0305996l1.0099754,6.3491898v35.3558807
					c5.6278725-4.1845703,12.4103889-6.926506,19.7702217-6.926506c11.8337402,0,23.5228195,8.369812,23.5228195,23.6668015
					v27.4187241l7.50383,1.5873032C105.6386337,119.6362839,106.21595,120.6462555,106.21595,122.2335587z"/>
				<path fill="#020D2D" d="M163.7876587,73.366394c5.7288818-4.5349731,9.4537354-11.9042969,9.4537354-19.8239746
					c0-15.1523438-11.8331299-26.5527344-27.9959717-26.5527344c-16.3071289,0-28.1401291,11.4003906-28.1401291,26.5527344
					c0,7.8724365,3.6826172,15.1981812,9.3535156,19.7396851c-7.2329102,5.9344482-11.6624756,15.3115234-11.6624756,25.8619385
					c0,18.0389404,12.6990967,32.6139526,31.8926926,32.6139526c6.0605469,0,14.142334-1.7319336,20.4914551-6.0612183
					c1.5874023-1.0099487,2.3093262-2.3085938,1.2993164-4.0405273l-2.8865967-5.9165649
					c-1.0098877-1.5872803-2.3085938-2.0199585-3.895874-1.0099487c-5.1953125,2.7419434-10.5351562,4.1845703-15.1530762,4.1845703
					c-10.967041,0-17.4609375-7.3598633-17.8942871-17.0283203h42.427124c2.1646729,0,3.0306396-0.8659668,3.1746826-3.0305786
					v-2.8859253C174.0094604,86.7587891,170.0925903,78.6925049,163.7876587,73.366394z M145.2454224,39.977356
					c7.9370117,0,14.2868652,6.2052002,14.2868652,14.142395c0,8.0811157-6.3498535,14.2863159-14.2868652,14.2863159
					c-8.0812988,0-14.4311523-6.2052002-14.4311523-14.2863159C130.81427,46.1825562,137.3088989,39.977356,145.2454224,39.977356z
					 M129.6599731,92.5062256c1.4433594-8.2258301,7.6485596-13.8536987,15.5856934-13.8536987
					c8.0811768,0,14.4310303,5.7718506,15.440918,13.8536987H129.6599731z"/>
				<path fill="#020D2D" d="M218.844986,119.6362839v7.2151718c0,2.1646118-0.8659821,3.0305939-3.0306091,3.0305939
					c-15.873642,0-23.3781433-7.3598328-23.3781433-22.6568298v-66.237854l-7.50383-1.5872993
					c-1.7319641-0.2886581-2.4532776-1.2986336-2.4532776-2.8859329v-4.617897c0-2.1646175,1.0099792-3.0305996,3.0305939-3.0305996
					h17.3169556c2.1646118,0,2.7419281,0.7213154,3.0305939,3.0305996l1.0099792,6.4938545v68.8351288
					c0,5.7725449,2.8866119,9.3804626,8.9471283,9.3804626C217.9790039,116.6056824,218.844986,117.4716644,218.844986,119.6362839z
					"/>
				<path fill="#020D2D" d="M270.8335571,99.1440659c0-17.8942642,14.5756836-32.4692688,32.6139526-32.4692688
					c18.0389404,0,32.6139526,14.5750046,32.6139526,32.4692688c0,18.0389404-14.5750122,32.613945-32.6139526,32.613945
					C285.4092407,131.7580109,270.8335571,117.1830063,270.8335571,99.1440659z M322.0637512,99.1440659
					c0-10.3904343-7.7931519-19.3375702-18.6162415-19.3375702s-18.6155701,8.9471359-18.6155701,19.3375702
					s7.7924805,19.3375778,18.6155701,19.3375778S322.0637512,109.5345078,322.0637512,99.1440659z"/>
				<g>
					<path fill="#020D2D" d="M264.4850464,122.2335587v4.617897c0,2.1646118-1.0099792,3.0305939-3.0299377,3.0305939h-28.1407013
						c-2.0199432,0-3.0305939-0.8659821-3.0305939-3.0305939v-7.2344894c0-1.6568604,1.3431396-3,3-3h6.8131104V80.3838196
						l-6.7825165-1.2986374c-1.7312927-0.2886581-2.308609-1.2986374-2.308609-2.8859329v-4.617897
						c0-2.1646194,1.0099792-3.0306015,3.0299225-3.0306015h16.5956421c2.1646118,0,2.7419281,0.7213135,3.0305939,3.0306015
						l1.0099792,10.9670868v35.2118835l7.5045166,1.5873032
						C263.9077148,119.6362839,264.4850464,120.6462555,264.4850464,122.2335587z"/>
					
						<linearGradient id="SVGID_1_" gradientUnits="userSpaceOnUse" x1="236.3280945" y1="54.1916542" x2="258.4407654" y2="54.1916542">
						<stop  offset="0" style="stop-color:#FF5B00"/>
						<stop  offset="0.2002972" style="stop-color:#FF4C03"/>
						<stop  offset="0.7187881" style="stop-color:#FF2A0A"/>
						<stop  offset="1" style="stop-color:#FF1D0D"/>
					</linearGradient>
					<path fill="url(#SVGID_1_)" d="M236.3280945,54.1362953c0,6.2225037,4.8891907,11.0004158,11.1119843,11.0004158
						c6.111496,0,11.0006866-4.7779121,11.0006866-11.0004158c0-6.1115952-4.8891907-10.8896942-11.0006866-10.8896942
						C241.328949,43.2466011,236.3280945,48.0247002,236.3280945,54.1362953z"/>
				</g>
				<g>
					<path fill="#020D2D" d="M36.3420448,173.0108643c-0.8486328,0-1.6210938-0.1015625-2.3183594-0.3032227
						c-0.6967773-0.2016602-1.3183594-0.4492188-1.8637695-0.7421875c-0.5454082-0.2929688-1.0107403-0.6010742-1.3940411-0.9243164
						c-0.3842773-0.3232422-0.6972656-0.6064453-0.9394531-0.8486328c-0.2021484-0.2016602-0.3085938-0.4345703-0.3183594-0.6972656
						c-0.0102539-0.262207,0.0756836-0.4746094,0.2578125-0.6362305l0.7875977-0.7275391
						c0.222168-0.2016602,0.4648438-0.3027344,0.7275391-0.3027344c0.262207,0,0.5048828,0.1108398,0.7275372,0.3330078
						c0.1816406,0.1821289,0.4189453,0.3842773,0.7119141,0.6064453s0.621582,0.4345703,0.9848633,0.6362305
						c0.3637695,0.2021484,0.7626953,0.3686523,1.1972656,0.5c0.434082,0.1318359,0.894043,0.1972656,1.3789062,0.1972656
						c1.1313477,0,1.9951172-0.3129883,2.5913086-0.9399414c0.5957031-0.6259766,0.894043-1.3735352,0.894043-2.2426758
						c0-0.9091797-0.3637695-1.6616211-1.0913086-2.2578125c-0.7270508-0.5957031-1.7270508-1.1967773-3-1.8032227
						c-0.8286133-0.4038086-1.5961914-0.8227539-2.3032227-1.2573242c-0.7075195-0.4345703-1.3183594-0.9194336-1.8334942-1.4550781
						c-0.515625-0.534668-0.9145508-1.1210938-1.1972656-1.7573242c-0.2832031-0.6367188-0.4243164-1.3588867-0.4243164-2.1669922
						s0.15625-1.5556641,0.4697266-2.2426758c0.3129883-0.6865234,0.7578125-1.2827148,1.3334961-1.7880859
						c0.5756817-0.5048828,1.2729473-0.8989258,2.0913067-1.1821289c0.8178711-0.2827148,1.7319336-0.4243164,2.7426758-0.4243164
						c1.2119141,0,2.2470703,0.1850586,3.1064453,0.5551758c0.8583984,0.3696289,1.5200195,0.7143555,1.9848633,1.0341797
						c0.262207,0.1601562,0.4038086,0.3803711,0.4243164,0.6601562c0.0200195,0.2797852-0.0605469,0.5400391-0.2426758,0.78125
						l-0.6362305,0.7880859c-0.1816406,0.2226562-0.394043,0.3383789-0.6362305,0.3486328
						c-0.2426758,0.0102539-0.4848633-0.0654297-0.7275391-0.2275391c-0.2832031-0.222168-0.7021484-0.4594727-1.2578125-0.7124023
						c-0.5556641-0.2519531-1.2075195-0.378418-1.9545898-0.378418c-1.0712891,0-1.8994141,0.2631836-2.4853516,0.7890625
						c-0.5859375,0.5263672-0.8789062,1.1733398-0.8789062,1.9423828c0,0.8100586,0.34375,1.5078125,1.0307617,2.0947266
						c0.6865234,0.5869141,1.6259766,1.1635742,2.8183594,1.7294922c0.8486328,0.4052734,1.6411133,0.8251953,2.3789062,1.2602539
						c0.7373047,0.4350586,1.3740234,0.9160156,1.9091797,1.4418945c0.5351562,0.5263672,0.9550781,1.1230469,1.2578125,1.7905273
						c0.3032227,0.6674805,0.4545898,1.4365234,0.4545898,2.3071289c0,0.8500977-0.1567383,1.6542969-0.4697266,2.4130859
						c-0.3134766,0.7587891-0.7626953,1.4213867-1.3486328,1.987793c-0.5859375,0.5668945-1.2929688,1.012207-2.1210938,1.3359375
						C38.3317909,172.8487549,37.3923378,173.0108643,36.3420448,173.0108643z"/>
					<path fill="#020D2D" d="M48.1008339,172.5562744c-0.2631836,0-0.4804688-0.0805664-0.6518555-0.2426758
						c-0.171875-0.1611328-0.237793-0.3833008-0.1967773-0.6665039l0.8486328-20.1235352
						c0.0195312-0.2421875,0.0854492-0.4287109,0.1967773-0.5605469c0.1108398-0.1313477,0.2470703-0.2167969,0.4091797-0.2573242
						c0.1616211-0.0405273,0.3227539-0.0253906,0.4848633,0.0454102c0.1616211,0.0708008,0.3032227,0.1967773,0.4243164,0.378418
						l7.9101562,14.1230469c0.0605469,0.1416016,0.1513672,0.2119141,0.2724609,0.2119141s0.2124023-0.0703125,0.2729492-0.2119141
						l7.9096718-14.1230469c0.121582-0.1816406,0.2626953-0.3076172,0.4243164-0.378418s0.3232422-0.0859375,0.4848633-0.0454102
						s0.2978516,0.1259766,0.4091797,0.2573242c0.1108398,0.1318359,0.1767578,0.3183594,0.1972656,0.5605469l0.8486328,20.1235352
						c0.0400391,0.2832031-0.0258789,0.5053711-0.1972656,0.6665039c-0.171875,0.1621094-0.3891602,0.2426758-0.6513672,0.2426758
						h-1.4853516c-0.222168,0-0.4140625-0.0756836-0.5756836-0.2275391
						c-0.1616211-0.1513672-0.2421875-0.3481445-0.2421875-0.5908203l-0.394043-11.7587891
						c0-0.222168-0.0908203-0.3432617-0.2729492-0.3637695c-0.1816406-0.0195312-0.3134766,0.0507812-0.394043,0.2124023
						l-5.6972694,10.7285156c-0.1621094,0.2421875-0.3740234,0.3632812-0.6367188,0.3632812
						s-0.4746094-0.1210938-0.6362305-0.3632812l-5.6977539-10.7285156
						c-0.0810547-0.1616211-0.2119141-0.2319336-0.394043-0.2124023c-0.1816406,0.0205078-0.2724609,0.1416016-0.2724609,0.3637695
						l-0.394043,11.7587891c0,0.2426758-0.0810547,0.4394531-0.2426758,0.5908203
						c-0.1616211,0.1518555-0.3535156,0.2275391-0.5756836,0.2275391H48.1008339z"/>
					<path fill="#020D2D" d="M72.4973221,172.5562744c-0.3237305,0-0.5458984-0.105957-0.6669922-0.3183594
						c-0.1210938-0.2119141-0.1210938-0.4589844,0-0.7421875l9.6982422-20.3354492
						c0.1611328-0.34375,0.4038086-0.515625,0.7270508-0.515625s0.5654297,0.171875,0.7275391,0.515625l9.6674805,20.3354492
						c0.1411133,0.2832031,0.1464844,0.5302734,0.0151367,0.7421875c-0.1313477,0.2124023-0.3588867,0.3183594-0.6816406,0.3183594
						h-1.8486328c-0.5454102,0-0.9296875-0.262207-1.1518555-0.7880859l-2.2426758-4.7880859
						c-0.1010742-0.2626953-0.3027344-0.394043-0.605957-0.394043h-8.03125c-0.3032227,0-0.5151367,0.1313477-0.6362305,0.394043
						l-2.2426758,4.7880859c-0.2021484,0.5258789-0.5864258,0.7880859-1.1518555,0.7880859H72.4973221z M79.073494,163.3126221
						c-0.0405273,0.1015625-0.0302734,0.1972656,0.0302734,0.2880859s0.1411133,0.1362305,0.2426758,0.1362305h5.6064453
						c0.1010742,0,0.1767578-0.0400391,0.2275391-0.1210938c0.050293-0.0805664,0.0551758-0.1713867,0.0151367-0.2724609
						l-2.7275391-6.0009766c-0.0605469-0.1411133-0.1621094-0.2167969-0.3032227-0.2270508
						c-0.1416016-0.0102539-0.2421875,0.0556641-0.3032227,0.1967773L79.073494,163.3126221z"/>
					<path fill="#020D2D" d="M97.2268143,172.5562744c-0.2226562,0-0.4194336-0.0859375-0.5908203-0.2578125
						c-0.171875-0.1713867-0.2578125-0.3681641-0.2578125-0.5908203v-19.8203125
						c0-0.2421875,0.0859375-0.4443359,0.2578125-0.605957c0.1713867-0.1616211,0.3681641-0.2426758,0.5908203-0.2426758h5.0610352
						c1.0102539,0,1.9291992,0.1669922,2.7583008,0.5c0.828125,0.3334961,1.5302734,0.7832031,2.105957,1.3486328
						c0.5761719,0.565918,1.0200195,1.2275391,1.3334961,1.9853516c0.3129883,0.7573242,0.4697266,1.5605469,0.4697266,2.4091797
						c0,1.3334961-0.3789062,2.515625-1.1362305,3.5458984c-0.7578125,1.0302734-1.8032227,1.7480469-3.1367188,2.1518555
						c-0.2426758,0.1010742-0.293457,0.2626953-0.1518555,0.4848633l6.1220703,8.0615234
						c0.1616211,0.2226562,0.1865234,0.449707,0.0756836,0.6816406c-0.1113281,0.2324219-0.3183594,0.3486328-0.6210938,0.3486328
						h-2.0913086c-0.4042969,0-0.7172852-0.1713867-0.9394531-0.5151367l-5.8491211-8.03125
						c-0.1210938-0.1616211-0.2724609-0.2421875-0.4545898-0.2421875h-0.7578125
						c-0.2021484,0-0.3027344,0.1210938-0.3027344,0.3632812v7.5766602c0,0.2226562-0.0810547,0.4194336-0.2426758,0.5908203
						c-0.1616211,0.171875-0.3637695,0.2578125-0.605957,0.2578125H97.2268143z M101.8332596,160.979126
						c1.1918945,0,2.1367188-0.3330078,2.8339844-1c0.6967773-0.6665039,1.0454102-1.5048828,1.0454102-2.5151367
						s-0.3486328-1.8491211-1.0454102-2.515625c-0.6972656-0.6669922-1.6420898-1-2.8339844-1h-1.6665039
						c-0.1210938,0-0.2275391,0.0454102-0.3183594,0.1362305s-0.1362305,0.1967773-0.1362305,0.3183594v6.121582
						c0,0.1416016,0.0454102,0.2529297,0.1362305,0.3334961c0.0908203,0.0810547,0.1972656,0.1210938,0.3183594,0.1210938
						H101.8332596z"/>
					<path fill="#020D2D" d="M112.682869,154.1905518c-0.2226562,0-0.4194336-0.0854492-0.5908203-0.2573242
						c-0.171875-0.1713867-0.2578125-0.3686523-0.2578125-0.5913086v-1.4545898c0-0.2421875,0.0859375-0.4443359,0.2578125-0.605957
						c0.1713867-0.1616211,0.3681641-0.2426758,0.5908203-0.2426758h13.152832c0.2426758,0,0.4443359,0.0810547,0.605957,0.2426758
						s0.2426758,0.3637695,0.2426758,0.605957v1.4545898c0,0.2226562-0.0810547,0.4199219-0.2426758,0.5913086
						c-0.1616211,0.171875-0.3632812,0.2573242-0.605957,0.2573242h-4.4550781c-0.1210938,0-0.2270508,0.0410156-0.3183594,0.121582
						c-0.0908203,0.0805664-0.1362305,0.1918945-0.1362305,0.3330078v17.0625c0,0.2226562-0.0810547,0.4194336-0.2421875,0.5908203
						c-0.1621094,0.171875-0.3637695,0.2578125-0.6064453,0.2578125h-1.6362305
						c-0.2226562,0-0.4199219-0.0859375-0.5913086-0.2578125c-0.171875-0.1713867-0.2573242-0.3681641-0.2573242-0.5908203v-17.0625
						c0-0.3027344-0.1518555-0.4545898-0.4545898-0.4545898H112.682869z"/>
					<path fill="#020D2D" d="M150.2619629,173.0108643c-1.5961914,0-3.081543-0.2880859-4.4550781-0.8637695
						c-1.3740234-0.5756836-2.565918-1.3686523-3.5761719-2.3789062c-1.0107422-1.0102539-1.8085938-2.1972656-2.394043-3.5610352
						c-0.5864258-1.3637695-0.8789062-2.8334961-0.8789062-4.409668c0-1.5756836,0.2924805-3.0458984,0.8789062-4.409668
						c0.5854492-1.3637695,1.3833008-2.550293,2.394043-3.5610352c1.0102539-1.0097656,2.2021484-1.8032227,3.5761719-2.3789062
						c1.3735352-0.5756836,2.8588867-0.8637695,4.4550781-0.8637695c1.7978516,0,3.4243164,0.3637695,4.8793945,1.0913086
						c1.4545898,0.7270508,2.6865234,1.7275391,3.6972656,3c0.1816406,0.2226562,0.2524414,0.4697266,0.2119141,0.7426758
						s-0.1816406,0.4902344-0.4243164,0.6513672l-0.9697266,0.6972656c-0.4848633,0.3232422-0.949707,0.2626953-1.394043-0.1816406
						c-0.7075195-0.8486328-1.5712891-1.5307617-2.5913086-2.0458984c-1.0205078-0.5151367-2.1567383-0.7729492-3.4091797-0.7729492
						c-1.1113281,0-2.1572266,0.2075195-3.1367188,0.621582c-0.9804688,0.4140625-1.8237305,0.9799805-2.5307617,1.6967773
						c-0.7075195,0.7177734-1.2680664,1.5664062-1.6821289,2.5458984c-0.4140625,0.9804688-0.6210938,2.0356445-0.6210938,3.1669922
						c0,1.1318359,0.2070312,2.1821289,0.6210938,3.1518555s0.9746094,1.8134766,1.6821289,2.5307617
						c0.7070312,0.7172852,1.550293,1.2832031,2.5307617,1.6972656c0.9794922,0.4140625,2.0253906,0.6210938,3.1367188,0.6210938
						c1.3334961,0,2.5405273-0.2827148,3.621582-0.8486328c1.0805664-0.5654297,1.9643555-1.3334961,2.6518555-2.3032227
						c0.1816406-0.222168,0.394043-0.3535156,0.6362305-0.394043c0.2426758-0.0400391,0.4746094,0.0205078,0.6972656,0.1816406
						l0.9697266,0.6669922c0.262207,0.1816406,0.4243164,0.4042969,0.4848633,0.6665039
						c0.0605469,0.2631836,0.0097656,0.5053711-0.1513672,0.7275391c-1.0107422,1.394043-2.2734375,2.4956055-3.7885742,3.3032227
						C153.8684082,172.6065674,152.1608887,173.0108643,150.2619629,173.0108643z"/>
					<path fill="#020D2D" d="M164.1418457,172.5562744c-0.2226562,0-0.4194336-0.0859375-0.5908203-0.2578125
						c-0.171875-0.1713867-0.2578125-0.3681641-0.2578125-0.5908203v-19.8203125
						c0-0.2421875,0.0859375-0.4443359,0.2578125-0.605957c0.1713867-0.1616211,0.3681641-0.2426758,0.5908203-0.2426758h1.6367188
						c0.2421875,0,0.4443359,0.0810547,0.605957,0.2426758s0.2426758,0.3637695,0.2426758,0.605957v17.0625
						c0,0.1210938,0.0454102,0.2275391,0.1362305,0.3183594s0.1972656,0.1362305,0.3183594,0.1362305h7.7885742
						c0.2426758,0,0.4443359,0.0810547,0.605957,0.2426758s0.2426758,0.3632812,0.2426758,0.605957v1.4545898
						c0,0.2226562-0.0810547,0.4194336-0.2426758,0.5908203c-0.1616211,0.171875-0.3632812,0.2578125-0.605957,0.2578125
						H164.1418457z"/>
					<path fill="#020D2D" d="M188.5383301,173.0108643c-1.5961914,0-3.081543-0.2880859-4.4550781-0.8637695
						c-1.3740234-0.5756836-2.565918-1.3686523-3.5761719-2.3789062c-1.0107422-1.0102539-1.8085938-2.1972656-2.394043-3.5610352
						c-0.5864258-1.3637695-0.8789062-2.8334961-0.8789062-4.409668c0-1.5756836,0.2924805-3.0458984,0.8789062-4.409668
						c0.5854492-1.3637695,1.3833008-2.550293,2.394043-3.5610352c1.0102539-1.0097656,2.2021484-1.8032227,3.5761719-2.3789062
						c1.3735352-0.5756836,2.8588867-0.8637695,4.4550781-0.8637695c1.5756836,0,3.050293,0.2880859,4.4248047,0.8637695
						c1.3735352,0.5756836,2.5708008,1.3691406,3.5913086,2.3789062c1.0195312,1.0107422,1.8183594,2.1972656,2.394043,3.5610352
						s0.8637695,2.8339844,0.8637695,4.409668c0,1.5761719-0.2880859,3.0458984-0.8637695,4.409668
						s-1.3745117,2.5507812-2.394043,3.5610352c-1.0205078,1.0102539-2.2177734,1.8032227-3.5913086,2.3789062
						C191.588623,172.7227783,190.1140137,173.0108643,188.5383301,173.0108643z M188.5383301,169.8590088
						c1.1313477,0,2.1767578-0.2070312,3.1367188-0.6210938c0.9594727-0.4140625,1.7978516-0.9853516,2.5151367-1.7124023
						c0.7172852-0.7275391,1.277832-1.5805664,1.6821289-2.5610352c0.4038086-0.9794922,0.605957-2.0351562,0.605957-3.1669922
						c0-1.1313477-0.2021484-2.1865234-0.605957-3.1669922c-0.4042969-0.9794922-0.9648438-1.8334961-1.6821289-2.5610352
						c-0.7172852-0.7270508-1.5556641-1.2978516-2.5151367-1.7119141c-0.9599609-0.4140625-2.0053711-0.621582-3.1367188-0.621582
						c-1.1113281,0-2.1572266,0.2075195-3.1367188,0.621582c-0.9804688,0.4140625-1.8237305,0.9848633-2.5307617,1.7119141
						c-0.7075195,0.7275391-1.2680664,1.581543-1.6821289,2.5610352c-0.4140625,0.9804688-0.6210938,2.0356445-0.6210938,3.1669922
						c0,1.1318359,0.2070312,2.1875,0.6210938,3.1669922c0.4140625,0.9804688,0.9746094,1.8334961,1.6821289,2.5610352
						c0.7070312,0.7270508,1.550293,1.2983398,2.5307617,1.7124023
						C186.3811035,169.6519775,187.427002,169.8590088,188.5383301,169.8590088z"/>
					<path fill="#020D2D" d="M211.7224121,173.0108643c-1.1518555,0-2.2021484-0.1923828-3.1518555-0.5756836
						c-0.949707-0.3837891-1.7631836-0.9243164-2.4394531-1.621582c-0.6772461-0.6967773-1.2026367-1.550293-1.5761719-2.5610352
						c-0.3740234-1.0097656-0.5605469-2.1313477-0.5605469-3.3637695v-13.0014648
						c0-0.2421875,0.0805664-0.4443359,0.2421875-0.605957s0.3637695-0.2426758,0.6064453-0.2426758h1.6362305
						c0.222168,0,0.4194336,0.0810547,0.5913086,0.2426758c0.1713867,0.1616211,0.2573242,0.3637695,0.2573242,0.605957v12.940918
						c0,1.4951172,0.3989258,2.6821289,1.1972656,3.5610352c0.7978516,0.8789062,1.8637695,1.3183594,3.1972656,1.3183594
						s2.3989258-0.4394531,3.1972656-1.3183594c0.7978516-0.8789062,1.1972656-2.065918,1.1972656-3.5610352v-12.940918
						c0-0.2421875,0.0805664-0.4443359,0.2421875-0.605957s0.3637695-0.2426758,0.6064453-0.2426758h1.6362305
						c0.222168,0,0.4194336,0.0810547,0.5913086,0.2426758c0.1713867,0.1616211,0.2573242,0.3637695,0.2573242,0.605957v13.0014648
						c0,1.2324219-0.1870117,2.3540039-0.5605469,3.3637695c-0.3740234,1.0107422-0.9042969,1.8642578-1.5913086,2.5610352
						c-0.6870117,0.6972656-1.5,1.237793-2.4394531,1.621582
						C213.9196777,172.8184814,212.8742676,173.0108643,211.7224121,173.0108643z"/>
					<path fill="#020D2D" d="M225.6633301,172.5562744c-0.2226562,0-0.4194336-0.0859375-0.5908203-0.2578125
						c-0.171875-0.1713867-0.2578125-0.3681641-0.2578125-0.5908203v-19.8203125
						c0-0.2421875,0.0859375-0.4443359,0.2578125-0.605957c0.1713867-0.1616211,0.3681641-0.2426758,0.5908203-0.2426758h4.6064453
						c1.7578125,0,3.2983398,0.2729492,4.6220703,0.8183594c1.3227539,0.5454102,2.4291992,1.2983398,3.3183594,2.2578125
						c0.8886719,0.9599609,1.5556641,2.0961914,2.0004883,3.409668c0.4438477,1.3134766,0.6665039,2.737793,0.6665039,4.2729492
						c0,1.5356445-0.2226562,2.9599609-0.6665039,4.2734375c-0.4448242,1.3134766-1.1118164,2.449707-2.0004883,3.4091797
						c-0.8891602,0.9599609-1.9956055,1.7124023-3.3183594,2.2578125c-1.3237305,0.5454102-2.8642578,0.8183594-4.6220703,0.8183594
						H225.6633301z M228.1486816,169.010376c0,0.1416016,0.0454102,0.2529297,0.1362305,0.3334961
						c0.0908203,0.0810547,0.1972656,0.1210938,0.3183594,0.1210938h1.6665039c1.2324219,0,2.3037109-0.1865234,3.2128906-0.5605469
						c0.9091797-0.3735352,1.6665039-0.9038086,2.2729492-1.5913086c0.605957-0.6865234,1.0551758-1.5,1.3486328-2.4394531
						c0.2924805-0.9394531,0.4394531-1.9648438,0.4394531-3.0761719c0-1.1313477-0.1469727-2.1669922-0.4394531-3.1064453
						c-0.293457-0.9394531-0.7426758-1.7470703-1.3486328-2.4243164c-0.6064453-0.6767578-1.3637695-1.2070312-2.2729492-1.5913086
						c-0.9091797-0.3833008-1.9804688-0.5756836-3.2128906-0.5756836h-1.6665039
						c-0.1210938,0-0.2275391,0.0454102-0.3183594,0.1362305c-0.0908203,0.0913086-0.1362305,0.1972656-0.1362305,0.3183594
						V169.010376z"/>
					<path fill="#FF1D0D" d="M255.9689941,172.5562744c-0.2226562,0-0.4194336-0.0859375-0.5908203-0.2578125
						c-0.171875-0.1713867-0.2578125-0.3681641-0.2578125-0.5908203v-19.8203125
						c0-0.2421875,0.0859375-0.4443359,0.2578125-0.605957c0.1713867-0.1616211,0.3681641-0.2426758,0.5908203-0.2426758h9.8193359
						c0.2426758,0,0.4443359,0.0810547,0.605957,0.2426758s0.2426758,0.3637695,0.2426758,0.605957v1.3637695
						c0,0.2426758-0.0810547,0.4448242-0.2426758,0.6064453s-0.3632812,0.2421875-0.605957,0.2421875h-6.8793945
						c-0.1210938,0-0.2275391,0.0454102-0.3183594,0.1362305c-0.0908203,0.0913086-0.1362305,0.1972656-0.1362305,0.3183594
						v4.9399414c0,0.1210938,0.0454102,0.2275391,0.1362305,0.3183594s0.1972656,0.1362305,0.3183594,0.1362305h7.637207
						c0.2421875,0,0.4438477,0.0810547,0.605957,0.2426758c0.1616211,0.1616211,0.2426758,0.3632812,0.2426758,0.605957v1.1513672
						c0,0.2426758-0.0810547,0.4448242-0.2426758,0.6064453c-0.1621094,0.1616211-0.3637695,0.2421875-0.605957,0.2421875h-7.637207
						c-0.1210938,0-0.2275391,0.0454102-0.3183594,0.1367188c-0.0908203,0.0908203-0.1362305,0.1967773-0.1362305,0.3178711
						v8.4555664c0,0.2226562-0.0810547,0.4194336-0.2426758,0.5908203c-0.1616211,0.171875-0.3637695,0.2578125-0.605957,0.2578125
						H255.9689941z"/>
					<path fill="#FF1D0D" d="M268.6071777,172.5562744c-0.3237305,0-0.5458984-0.105957-0.6669922-0.3183594
						c-0.1210938-0.2119141-0.1210938-0.4589844,0-0.7421875l9.6982422-20.3354492
						c0.1611328-0.34375,0.4038086-0.515625,0.7270508-0.515625s0.5654297,0.171875,0.7275391,0.515625l9.6674805,20.3354492
						c0.1411133,0.2832031,0.1464844,0.5302734,0.0151367,0.7421875c-0.1313477,0.2124023-0.3588867,0.3183594-0.6816406,0.3183594
						h-1.8486328c-0.5454102,0-0.9296875-0.262207-1.1518555-0.7880859l-2.2426758-4.7880859
						c-0.1010742-0.2626953-0.3027344-0.394043-0.605957-0.394043h-8.03125c-0.3032227,0-0.5151367,0.1313477-0.6362305,0.394043
						l-2.2426758,4.7880859c-0.2021484,0.5258789-0.5864258,0.7880859-1.1518555,0.7880859H268.6071777z M275.1833496,163.3126221
						c-0.0405273,0.1015625-0.0302734,0.1972656,0.0302734,0.2880859s0.1411133,0.1362305,0.2426758,0.1362305h5.6064453
						c0.1010742,0,0.1767578-0.0400391,0.2275391-0.1210938c0.050293-0.0805664,0.0551758-0.1713867,0.0151367-0.2724609
						l-2.7275391-6.0009766c-0.0605469-0.1411133-0.1621094-0.2167969-0.3032227-0.2270508
						c-0.1416016-0.0102539-0.2421875,0.0556641-0.3032227,0.1967773L275.1833496,163.3126221z"/>
					<path fill="#FF1D0D" d="M301.3679199,173.0108643c-1.5961914,0-3.081543-0.2880859-4.4550781-0.8637695
						c-1.3740234-0.5756836-2.565918-1.3686523-3.5761719-2.3789062c-1.0107422-1.0102539-1.8085938-2.1972656-2.394043-3.5610352
						c-0.5864258-1.3637695-0.8789062-2.8334961-0.8789062-4.409668c0-1.5756836,0.2924805-3.0458984,0.8789062-4.409668
						c0.5854492-1.3637695,1.3833008-2.550293,2.394043-3.5610352c1.0102539-1.0097656,2.2021484-1.8032227,3.5761719-2.3789062
						c1.3735352-0.5756836,2.8588867-0.8637695,4.4550781-0.8637695c1.7978516,0,3.4243164,0.3637695,4.8793945,1.0913086
						c1.4545898,0.7270508,2.6865234,1.7275391,3.6972656,3c0.1816406,0.2226562,0.2524414,0.4697266,0.2119141,0.7426758
						s-0.1816406,0.4902344-0.4243164,0.6513672l-0.9697266,0.6972656c-0.4848633,0.3232422-0.949707,0.2626953-1.394043-0.1816406
						c-0.7075195-0.8486328-1.5712891-1.5307617-2.5913086-2.0458984c-1.0205078-0.5151367-2.1567383-0.7729492-3.4091797-0.7729492
						c-1.1113281,0-2.1572266,0.2075195-3.1367188,0.621582c-0.9804688,0.4140625-1.8237305,0.9799805-2.5307617,1.6967773
						c-0.7075195,0.7177734-1.2680664,1.5664062-1.6821289,2.5458984c-0.4140625,0.9804688-0.6210938,2.0356445-0.6210938,3.1669922
						c0,1.1318359,0.2070312,2.1821289,0.6210938,3.1518555s0.9746094,1.8134766,1.6821289,2.5307617
						c0.7070312,0.7172852,1.550293,1.2832031,2.5307617,1.6972656c0.9794922,0.4140625,2.0253906,0.6210938,3.1367188,0.6210938
						c1.3334961,0,2.5405273-0.2827148,3.621582-0.8486328c1.0805664-0.5654297,1.9643555-1.3334961,2.6518555-2.3032227
						c0.1816406-0.222168,0.394043-0.3535156,0.6362305-0.394043c0.2426758-0.0400391,0.4746094,0.0205078,0.6972656,0.1816406
						l0.9697266,0.6669922c0.262207,0.1816406,0.4243164,0.4042969,0.4848633,0.6665039
						c0.0605469,0.2631836,0.0097656,0.5053711-0.1513672,0.7275391c-1.0107422,1.394043-2.2734375,2.4956055-3.7885742,3.3032227
						C304.9743652,172.6065674,303.2668457,173.0108643,301.3679199,173.0108643z"/>
					<path fill="#FF1D0D" d="M313.2780762,154.1905518c-0.2226562,0-0.4194336-0.0854492-0.5908203-0.2573242
						c-0.171875-0.1713867-0.2578125-0.3686523-0.2578125-0.5913086v-1.4545898c0-0.2421875,0.0859375-0.4443359,0.2578125-0.605957
						c0.1713867-0.1616211,0.3681641-0.2426758,0.5908203-0.2426758h13.152832c0.2426758,0,0.4443359,0.0810547,0.605957,0.2426758
						s0.2426758,0.3637695,0.2426758,0.605957v1.4545898c0,0.2226562-0.0810547,0.4199219-0.2426758,0.5913086
						c-0.1616211,0.171875-0.3632812,0.2573242-0.605957,0.2573242h-4.4550781c-0.1210938,0-0.2270508,0.0410156-0.3183594,0.121582
						c-0.0908203,0.0805664-0.1362305,0.1918945-0.1362305,0.3330078v17.0625c0,0.2226562-0.0810547,0.4194336-0.2421875,0.5908203
						c-0.1621094,0.171875-0.3637695,0.2578125-0.6064453,0.2578125h-1.6362305
						c-0.2226562,0-0.4199219-0.0859375-0.5913086-0.2578125c-0.171875-0.1713867-0.2573242-0.3681641-0.2573242-0.5908203v-17.0625
						c0-0.3027344-0.1518555-0.4545898-0.4545898-0.4545898H313.2780762z"/>
					<path fill="#FF1D0D" d="M340.098877,173.0108643c-1.5961914,0-3.081543-0.2880859-4.4550781-0.8637695
						c-1.3740234-0.5756836-2.565918-1.3686523-3.5761719-2.3789062c-1.0107422-1.0102539-1.8085938-2.1972656-2.394043-3.5610352
						c-0.5864258-1.3637695-0.8789062-2.8334961-0.8789062-4.409668c0-1.5756836,0.2924805-3.0458984,0.8789062-4.409668
						c0.5854492-1.3637695,1.3833008-2.550293,2.394043-3.5610352c1.0102539-1.0097656,2.2021484-1.8032227,3.5761719-2.3789062
						c1.3735352-0.5756836,2.8588867-0.8637695,4.4550781-0.8637695c1.5756836,0,3.050293,0.2880859,4.4248047,0.8637695
						c1.3735352,0.5756836,2.5708008,1.3691406,3.5913086,2.3789062c1.0195312,1.0107422,1.8183594,2.1972656,2.394043,3.5610352
						s0.8637695,2.8339844,0.8637695,4.409668c0,1.5761719-0.2880859,3.0458984-0.8637695,4.409668
						s-1.3745117,2.5507812-2.394043,3.5610352c-1.0205078,1.0102539-2.2177734,1.8032227-3.5913086,2.3789062
						C343.1491699,172.7227783,341.6745605,173.0108643,340.098877,173.0108643z M340.098877,169.8590088
						c1.1313477,0,2.1767578-0.2070312,3.1367188-0.6210938c0.9594727-0.4140625,1.7978516-0.9853516,2.5151367-1.7124023
						c0.7172852-0.7275391,1.277832-1.5805664,1.6821289-2.5610352c0.4038086-0.9794922,0.605957-2.0351562,0.605957-3.1669922
						c0-1.1313477-0.2021484-2.1865234-0.605957-3.1669922c-0.4042969-0.9794922-0.9648438-1.8334961-1.6821289-2.5610352
						c-0.7172852-0.7270508-1.5556641-1.2978516-2.5151367-1.7119141c-0.9599609-0.4140625-2.0053711-0.621582-3.1367188-0.621582
						c-1.1113281,0-2.1572266,0.2075195-3.1367188,0.621582c-0.9804688,0.4140625-1.8237305,0.9848633-2.5307617,1.7119141
						c-0.7075195,0.7275391-1.2680664,1.581543-1.6821289,2.5610352c-0.4140625,0.9804688-0.6210938,2.0356445-0.6210938,3.1669922
						c0,1.1318359,0.2070312,2.1875,0.6210938,3.1669922c0.4140625,0.9804688,0.9746094,1.8334961,1.6821289,2.5610352
						c0.7070312,0.7270508,1.550293,1.2983398,2.5307617,1.7124023
						C337.9416504,169.6519775,338.9875488,169.8590088,340.098877,169.8590088z"/>
					<path fill="#FF1D0D" d="M356.6154785,172.5562744c-0.2226562,0-0.4194336-0.0859375-0.5908203-0.2578125
						c-0.171875-0.1713867-0.2578125-0.3681641-0.2578125-0.5908203v-19.8203125
						c0-0.2421875,0.0859375-0.4443359,0.2578125-0.605957c0.1713867-0.1616211,0.3681641-0.2426758,0.5908203-0.2426758h5.0610352
						c1.0102539,0,1.9291992,0.1669922,2.7583008,0.5c0.828125,0.3334961,1.5302734,0.7832031,2.105957,1.3486328
						c0.5761719,0.565918,1.0200195,1.2275391,1.3334961,1.9853516c0.3129883,0.7573242,0.4697266,1.5605469,0.4697266,2.4091797
						c0,1.3334961-0.3789062,2.515625-1.1362305,3.5458984c-0.7578125,1.0302734-1.8032227,1.7480469-3.1367188,2.1518555
						c-0.2426758,0.1010742-0.293457,0.2626953-0.1518555,0.4848633l6.1220703,8.0615234
						c0.1616211,0.2226562,0.1865234,0.449707,0.0756836,0.6816406c-0.1113281,0.2324219-0.3183594,0.3486328-0.6210938,0.3486328
						h-2.0913086c-0.4042969,0-0.7172852-0.1713867-0.9394531-0.5151367l-5.8491211-8.03125
						c-0.1210938-0.1616211-0.2724609-0.2421875-0.4545898-0.2421875h-0.7578125
						c-0.2021484,0-0.3027344,0.1210938-0.3027344,0.3632812v7.5766602c0,0.2226562-0.0810547,0.4194336-0.2426758,0.5908203
						c-0.1616211,0.171875-0.3637695,0.2578125-0.605957,0.2578125H356.6154785z M361.2219238,160.979126
						c1.1918945,0,2.1367188-0.3330078,2.8339844-1c0.6967773-0.6665039,1.0454102-1.5048828,1.0454102-2.5151367
						s-0.3486328-1.8491211-1.0454102-2.515625c-0.6972656-0.6669922-1.6420898-1-2.8339844-1h-1.6665039
						c-0.1210938,0-0.2275391,0.0454102-0.3183594,0.1362305s-0.1362305,0.1967773-0.1362305,0.3183594v6.121582
						c0,0.1416016,0.0454102,0.2529297,0.1362305,0.3334961c0.0908203,0.0810547,0.1972656,0.1210938,0.3183594,0.1210938
						H361.2219238z"/>
					<path fill="#FF1D0D" d="M378.4665527,172.5562744c-0.2226562,0-0.4194336-0.0859375-0.5908203-0.2578125
						c-0.171875-0.1713867-0.2578125-0.3681641-0.2578125-0.5908203v-9.1826172
						c0-0.2626953-0.0605469-0.4848633-0.1816406-0.6669922l-6.4858398-9.6674805
						c-0.1816406-0.2827148-0.2172852-0.5454102-0.105957-0.7880859c0.1108398-0.2421875,0.3583984-0.3637695,0.7426758-0.3637695
						h1.8486328c0.5048828,0,0.8583984,0.2021484,1.0605469,0.6064453l4.6064453,6.6972656
						c0.1010742,0.1416016,0.2172852,0.2124023,0.3486328,0.2124023s0.2373047-0.0708008,0.3183594-0.2124023l4.6064453-6.6972656
						c0.222168-0.4042969,0.5859375-0.6064453,1.0913086-0.6064453h1.5151367c0.3837891,0,0.6313477,0.121582,0.7426758,0.3637695
						c0.1108398,0.2426758,0.0854492,0.5053711-0.0761719,0.7880859l-6.515625,9.6674805
						c-0.1210938,0.1821289-0.1816406,0.4042969-0.1816406,0.6669922v9.1826172
						c0,0.2226562-0.0810547,0.4194336-0.2426758,0.5908203c-0.1621094,0.171875-0.3637695,0.2578125-0.605957,0.2578125
						H378.4665527z"/>
				</g>
			</g>
		</g>
	</g>
</g>
<g id="PALETTE">
	<g id="GRADS">
	</g>
</g>
<g id="WHOLE_x5F_ILLUS">
	<g id="ILLUS">
		<g id="infra">
		</g>
		<g id="devops">
		</g>
		<g id="cloud">
		</g>
		<g id="cluster">
		</g>
		<g id="x4_Flexible">
			<g id="PAY">
			</g>
			<g id="options">
			</g>
			<g id="cursors">
			</g>
			<g id="create">
			</g>
		</g>
		<g id="check">
		</g>
		<g id="DevOps_x5F_steps">
		</g>
		<g id="Security_ILLUS">
		</g>
	</g>
	<g id="BKGD_x5F_search">
	</g>
	<g id="FullStack">
	</g>
	<g id="Mission_x26_Vision">
	</g>
	<g id="ready_x5F_set_x5F_grow">
	</g>
	<g id="FRAME">
	</g>
	<g id="UI_items">
		<g id="ARROWS_slider">
		</g>
		<g id="play_button">
		</g>
	</g>
</g>
<g id="guides" display="none">
</g>
<g id="ID_x5F_BKGDS">
	<g id="BKGDs">
	</g>
	<g id="DOUBLEs">
	</g>
	<g id="pictos">
	</g>
	<g id="_x38_">
	</g>
</g>
</svg>
