<svg xmlns="http://www.w3.org/2000/svg" width="100" height="100" fill="#0f1689" stroke="null"><circle fill="#fff" r="26.596" cy="50.006" cx="55.084"/><path d="M20.13 38.518l-5.894 7.857h0l2.446 5.27 4.28-6.114-.825-6.725c-.006-.067-.006-.177-.006-.288h0 0zm5.032 24.059l-1.431 1.058 2.904 3.669a21.761 21.761 0 0 0 1.302 1.223 39.265 39.265 0 0 1-2.758-5.9l-.018-.049h0zM50.089 50.33c-9.611-2.77-16.227-5.503-20.562-7.624l-.611-.293-.514-.263-.134-.067a34.609 34.609 0 0 1-1.088-.575c-1.058-.568-1.914-1.07-2.586-1.492a21.901 21.901 0 0 1-1.944-1.333v.098a94.131 94.131 0 0 0 .88 5.35h0l.245 1.223a15.897 15.897 0 0 0 1.963 1.363 27.21 27.21 0 0 0 1.48.825h0c11.91 6.114 38.708 10.186 38.708 10.186a88.593 88.593 0 0 0 14.319.825 26.021 26.021 0 0 0 1.113-4.408c-8.645.838-19.461-.41-31.267-3.815h0 0zM32.511 64.069l-1.944-.611-.563-.183-.318-.098v.037a64.571 64.571 0 0 0 5.594 9.624c.55.061 2.012.214 4.158.348l2.91.147c6.903.269 17.847.11 29.06-2.378a27.079 27.079 0 0 0 3.791-3.601l.257-.037a104.551 104.551 0 0 1-42.945-3.247h0 0z" fill="#7f35b2"/><path d="M20.986 45.543l-4.28 6.114h0l2.042 3.87h0l3.497-3.112-1.223-6.725-.037-.147h0zm44.957 12.204s-24.946-3.785-37.394-9.544l-1.327-.648a19.498 19.498 0 0 1-3.424-2.189l.147.685a85.93 85.93 0 0 0 1.626 6.31l.116.043.343.128h.086l.196.073.33.116.165.061.483.171.226.08h.061l.715.251.183.061.263.098.862.293.33.11.611.208.453.153.563.183.563.183.532.177.654.208.502.159.722.232.514.159.783.245.508.153.856.257.495.153.917.269.495.147.966.281.489.141 1.027.288.489.134 1.07.293.483.128 1.113.293.483.128 1.156.3.477.116 1.223.3.471.11 1.223.293.465.11 1.272.293.453.098 1.302.281.44.098 1.339.275.422.086 1.37.263.41.08 1.4.257.385.067 1.425.238.373.061 1.449.226.348.049 1.479.214.306.037 1.51.189h.275l1.541.171h.232q.789.086 1.578.147h.171l1.62.116h.098l6.829.104a26.486 26.486 0 0 0 2.042-4.549 88.593 88.593 0 0 1-14.356-.703l-.002.001h0z" fill="#00c1d5"/><path d="M76.38 50.642c-5.429-.128-13.396-1.431-16.343-2.311-13.708-4.09-22.671-7.838-28.449-10.791l-1.223-.611c-1.4-.746-2.586-1.431-3.583-2.054a24.316 24.316 0 0 1-4.842-3.669 89.59 89.59 0 0 0 .691 7.49 21.901 21.901 0 0 0 1.944 1.333c.893.556 2.103 1.259 3.669 2.067.391.208.819.416 1.223.611 4.341 2.128 10.944 4.855 20.549 7.618 11.837 3.405 22.622 4.653 31.298 3.815a27.091 27.091 0 0 0 .312-3.619c-1.81.073-3.589.165-5.246.122h0zM71.39 63.017h-.098l-1.62-.116h-.171q-.789-.067-1.578-.147h-.232l-1.541-.171h-.275l-1.51-.189-.306-.037-1.48-.263-.348-.049-1.449-.226-.373-.061-1.425-.238-.385-.067-1.4-.257-.41-.08-1.37-.263-.44-.104-1.339-.275-.44-.098-1.278-.281-.453-.098-1.272-.293-.465-.11-1.223-.293-.471-.11-1.223-.3-.477-.116-1.143-.3-.483-.128-1.113-.293-.483-.128-1.07-.293-.489-.134-1.027-.293-.489-.141-.96-.275-.495-.147-.917-.269-.495-.153-.856-.257-.508-.153-.783-.245-.514-.159-.722-.232-.502-.159-.654-.208-.532-.177-.563-.183-.563-.183-.453-.153-.611-.208-.33-.11-.862-.293-.446-.159-.715-.251-.288-.104-.483-.171-.165-.061-.33-.116-.196-.073h-.086l-.459-.171v.104a75.674 75.674 0 0 0 4.103 10.736l.88.281 1.944.611a104.636 104.636 0 0 0 42.707 3.308 26.902 26.902 0 0 0 3.002-4.28h0c-2.189.049-4.475.006-6.805-.134v-.002h0zM20.98 27.091l-.122-1.516-1.455.942.202 5.001c0 .238 0 .471.043.709l-6.854 10.767 1.431 3.405 5.906-7.881v.324q.355 3.595.825 6.725v.141a118.74 118.74 0 0 0 1.223 6.725l-3.497 3.112h0c.061.122 1.48 2.733 2.446 4.231a209.609 209.609 0 0 0 2.568 3.852l1.425-1.064v.055a39.265 39.265 0 0 0 2.758 5.9 15.988 15.988 0 0 0 1.4 2.042.722.722 0 0 0 .165.141l2.152 1.223s-5.772-12.937-7.117-18.465c-.318-1.547-3.247-18.269-3.497-26.37h0 0z" fill="#1d428a"/><path fill="#0091da" d="M35.299 72.861a63.959 63.959 0 0 1-3.571-5.711l-2.024-3.913v-.031h0a73.418 73.418 0 0 1-2.666-6.408l-.538-1.523c0-.055-.037-.11-.061-.165l-.838-2.641v-.104l-.611-2.103-.734-2.917-.293-1.29-.165-.691-.245-1.223h0a92.378 92.378 0 0 1-.88-5.35v-.098l-.691-7.49-.061-4.849-1.027-.77.08 2.354a128.194 128.194 0 0 0 2.122 20.005l1.015 5.026.611 2.678c0 .104.055.208.08.312 3.1 12.124 6.86 15.982 6.86 15.982l.067.067 3.32.819h.08l.202.049-.031-.018h-.001z"/><path fill="#717074" d="M55.084 17.907a32.087 32.087 0 0 0-28.296 16.942 67.317 67.317 0 0 0 3.583 2.054l1.223.611a26.596 26.596 0 0 1 50.086 12.467v.52a27.091 27.091 0 0 1-.312 3.619 26.021 26.021 0 0 1-1.094 4.427 26.486 26.486 0 0 1-2.042 4.549 26.578 26.578 0 0 1-6.793 7.857 26.541 26.541 0 0 1-29.06 2.378l-2.91-.147-4.158-.348h0 0l-.202-.049h-.08l-3.283-.789a32.093 32.093 0 1 0 23.368-54.091h-.031z"/></svg>
