<svg xmlns="http://www.w3.org/2000/svg" width="100" height="100" fill="#0f1689" stroke="null"><path fill="#326ce5" d="M25.226 32.993a2.109 2.109 0 0 1 0-3.536L48.85 14.098a2.109 2.109 0 0 1 2.299 0l23.624 15.359a2.109 2.109 0 0 1 0 3.536L51.149 48.351a2.109 2.109 0 0 1-2.299 0L25.226 32.993z"/><path d="M53.73 35.703h1.639a1.243 1.243 0 0 0 1.077-1.865l-5.369-9.299a1.243 1.243 0 0 0-2.154 0l-5.369 9.299a1.243 1.243 0 0 0 1.077 1.865h1.639a1.243 1.243 0 0 1 1.243 1.243v10.615l1.1.715a2.545 2.545 0 0 0 2.774 0l1.1-.715V36.947a1.243 1.243 0 0 1 1.243-1.243h0z" fill="#c1d2f7"/><path d="M48.85 85.906a2.098 2.098 0 0 0 .716.29l-1.372-.717.656.426zm-1.337-33.384l-2.343 1.524a22.987 22.987 0 0 0 2.343 1.367v-2.89zm4.974 4.912l6.236 1.695 6.797 1.866-7.335-4.768a44.709 44.709 0 0 1-5.698-1.949v3.156zm0 12.88v.121c0 .532-.557.963-1.243.963h-2.487c-.687 0-1.243-.431-1.243-.963v-1.368c-5.158-1.326-10.329-3-14.675-7.004l-3.009 1.956c4.653 4.567 10.413 5.992 16.509 7.495 5.629 1.387 11.428 2.827 16.296 6.926l3.04-1.976c-3.838-3.418-8.369-4.906-13.187-6.149zM32.183 75.07l8.058 5.239c4.155 1.059 8.325 2.329 12.076 4.838l3.086-2.006c-4.091-2.832-8.812-4-13.755-5.218-3.166-.78-6.386-1.577-9.465-2.852zm15.33-17.035a25.747 25.747 0 0 1-4.46-2.614l-3.066 1.993a25.792 25.792 0 0 0 7.526 3.874v-3.254zM58.16 61.41c-1.886-.465-3.791-.937-5.673-1.512v2.834q1.046.266 2.108.526c6.199 1.528 12.61 3.108 17.75 8.249.126.126.241.257.363.385l2.066-1.343a2.093 2.093 0 0 0 .72-.787 20.87 20.87 0 0 0-.681-.722c-4.677-4.677-10.494-6.111-16.651-7.629zm-4.128 4.128q-.771-.19-1.545-.384v2.736c5.347 1.359 10.728 3.042 15.213 7.257l3.007-1.955c-.008-.008-.015-.016-.023-.024-4.677-4.677-10.494-6.111-16.652-7.629zm-6.519-1.778c-3.372-1.093-6.652-2.567-9.598-4.998l-3.041 1.977c3.701 3.222 8.032 4.696 12.638 5.903V63.76zm-19.488 1.785l-.207-.219-2.592 1.685a2.105 2.105 0 0 0-.341.289l.672.712c4.677 4.677 10.494 6.111 16.652 7.629 5.248 1.294 10.645 2.634 15.297 6.131l3.066-1.993c-4.321-3.401-9.429-4.662-14.798-5.985-6.199-1.528-12.61-3.108-17.75-8.249z" fill="none"/><path fill="#326ce5" d="M58.184 56.226l-5.698-3.704v1.755a44.709 44.709 0 0 0 5.698 1.949zm-5.698 1.207v2.464l5.673 1.512c6.158 1.518 11.974 2.952 16.651 7.629a20.85 20.85 0 0 1 .681.722 2.111 2.111 0 0 0-.72-2.75l-9.254-6.016c-2.246-.742-4.535-1.308-6.797-1.866-2.132-.526-4.219-1.05-6.236-1.695zm-4.974-2.021a22.987 22.987 0 0 1-2.343-1.367l-2.116 1.376a25.747 25.747 0 0 0 4.46 2.614v-2.623zm7.081 7.845q-1.061-.262-2.108-.526v2.422q.774.194 1.545.384c6.158 1.518 11.974 2.952 16.652 7.629.008.008.015.016.023.024l2.001-1.301c-.122-.128-.237-.258-.363-.385-5.14-5.14-11.551-6.721-17.75-8.249zm-7.081-1.968a25.792 25.792 0 0 1-7.526-3.874l-2.072 1.347c2.946 2.43 6.226 3.904 9.598 4.998v-2.47zm0 5.352c-4.606-1.207-8.938-2.681-12.638-5.902l-2.037 1.324c4.346 4.005 9.517 5.678 14.675 7.004v-2.426zm4.974 3.672c4.818 1.244 9.349 2.731 13.187 6.149l2.025-1.317c-4.484-4.215-9.866-5.898-15.213-7.257v2.424zm-22.658-6.295l-2.01 1.307c.071.073.135.147.207.219 5.14 5.14 11.551 6.721 17.75 8.249 5.369 1.323 10.477 2.584 14.798 5.985l2.06-1.339c-4.868-4.099-10.667-5.539-16.296-6.926-6.096-1.503-11.856-2.928-16.509-7.495zm-4.271 3.994c-.234-.234-.454-.473-.672-.712a2.103 2.103 0 0 0 .341 3.247l6.956 4.522c3.079 1.275 6.299 2.072 9.465 2.852 4.943 1.218 9.665 2.387 13.755 5.218l2.104-1.368c-4.652-3.497-10.049-4.837-15.297-6.131-6.158-1.518-11.974-2.952-16.652-7.629zm22.636 17.467a24.67 24.67 0 0 1 1.372.717 2.104 2.104 0 0 0 1.583-.29l1.168-.759c-3.751-2.509-7.921-3.779-12.076-4.838l7.954 5.171z"/></svg>
