<svg xmlns="http://www.w3.org/2000/svg" height="351" width="304"><mask id="a" fill="#fff"><path d="M0 0h313.303v159.865H0z" fill-rule="evenodd"/></mask><mask id="b" fill="#fff"><path d="M0 0h313.303v159.865H0z" fill-rule="evenodd"/></mask><g fill="none" fill-rule="evenodd"><path d="M.679 138h19.785v26.789h23.904V138h19.786v75.25H44.368v-28.695H20.464v28.695H.68zm86.173 75.25V138h46.803v16.354h-27.017v12.241h23.904v16.655h-23.904v13.846h27.017v16.154zm68.498 0V138h19.785v55.384h27.118v19.866zM232.886 138l30.733 27.893L294.252 138h8.939v75.25h-19.886v-38.628l-19.686 17.96-19.786-17.86v38.528h-19.886V138z" fill="#fff"/><g fill="#fff" mask="url(#a)" transform="matrix(1 0 0 -1 .958 404)"><path d="M223.651 143.376c5.682 3.979 18.782-4.927 29.26-19.891s14.367-30.32 8.685-34.3c-5.682-3.978-18.782 4.928-29.26 19.892s-14.367 30.32-8.685 34.3zM88.278 143.376c-5.682 3.979-18.783-4.927-29.26-19.891s-14.367-30.32-8.685-34.3 18.782 4.928 29.26 19.892 14.366 30.32 8.685 34.3zM155.896 119.946c-6.937 0-12.56-14.81-12.56-33.077 0-18.268 5.623-33.078 12.56-33.078 6.936 0 12.559 14.81 12.559 33.078s-5.623 33.077-12.56 33.077z"/></g><path d="M251.467 173.1c-20.23-33.61-56.89-56.068-98.756-56.068-40.72 0-76.516 21.246-97.058 53.335m2.198 129.17c20.84 30.232 55.556 50.026 94.86 50.026 39.376 0 74.147-19.866 94.974-50.192" mask="url(#a)" stroke="#fff" stroke-width="20" transform="matrix(1 0 0 -1 .958 404)"/><g><g fill="#fff" mask="url(#b)" transform="translate(.958 -51)"><path d="M223.651 140.917c5.682 3.978 18.782-4.927 29.26-19.892s14.367-30.32 8.685-34.299c-5.682-3.978-18.782 4.927-29.26 19.892s-14.367 30.32-8.685 34.299zM88.278 140.917c-5.682 3.978-18.783-4.927-29.26-19.892s-14.367-30.32-8.685-34.299 18.782 4.927 29.26 19.892 14.366 30.32 8.685 34.299zM155.896 117.487c-6.937 0-12.56-14.81-12.56-33.078s5.623-33.077 12.56-33.077c6.936 0 12.559 14.81 12.559 33.077 0 18.268-5.623 33.078-12.56 33.078z"/></g><path d="M251.467 170.64c-20.23-33.61-56.89-56.068-98.756-56.068-40.72 0-76.516 21.246-97.058 53.335m2.198 129.17c20.84 30.232 55.556 50.026 94.86 50.026 39.376 0 74.147-19.866 94.974-50.191" mask="url(#b)" stroke="#fff" stroke-width="20" transform="translate(.958 -51)"/></g></g></svg>