<svg xmlns="http://www.w3.org/2000/svg" width="100" height="100" stroke="null" fill="#0f1689"><path d="M31.905 29.238l-.291-.276c-2.03-1.95-3.601-4.205-4.55-6.87-.266-.746-.466-1.507-.431-2.31l.008-.229c.072-1.037.766-1.561 1.779-1.315a4.396 4.396 0 0 1 .922.353c1.109.556 2.012 1.378 2.843 2.279a18.104 18.104 0 0 1 3.495 5.378 1.335 1.335 0 0 0 .063.139c.011.021.036.034.09.083a28.373 28.373 0 0 1 13.035-4l-.072-.354a18.099 18.099 0 0 1-.427-5.946 13.526 13.526 0 0 1 .715-3.501 5.04 5.04 0 0 1 .881-1.636 2.524 2.524 0 0 1 .509-.454 1.13 1.13 0 0 1 1.292-.009 2.78 2.78 0 0 1 .94 1.083 8.536 8.536 0 0 1 .847 2.361 18.1 18.1 0 0 1 .342 5.31 15.38 15.38 0 0 1-.562 3.203l3.402.64a29.985 29.985 0 0 1 3.289.966 30.297 30.297 0 0 1 3.181 1.379l3.011 1.695.114-.242a17.482 17.482 0 0 1 5.293-7.523 6.075 6.075 0 0 1 1.902-1.107 2.775 2.775 0 0 1 .592-.136c1.008-.115 1.431.519 1.505 1.276a4.817 4.817 0 0 1-.124 1.666 14.143 14.143 0 0 1-1.726 3.972c-1.092 1.765-2.389 3.355-4.037 4.638-.049.038-.091.083-.174.159a28.602 28.602 0 0 1 4.278 4.969 1.764 1.764 0 0 1-.272.048c-1.705.002-3.409-.003-5.114.007a.644.644 0 0 1-.51-.272 23.791 23.791 0 0 0-14.186-7.489 23.064 23.064 0 0 0-4.871-.188 23.555 23.555 0 0 0-13.279 5.118 22.535 22.535 0 0 0-2.731 2.549.761.761 0 0 1-.622.283l-4.885-.006h-.346c.099-.387 1.1-1.76 2.234-2.985l2.649-2.706zm41.508 36.485a28.418 28.418 0 0 1-3.857 4.37l.3.249a17.426 17.426 0 0 1 5.419 7.746 5.57 5.57 0 0 1 .354 2.32 2.395 2.395 0 0 1-.12.594 1.16 1.16 0 0 1-1.312.808 3.577 3.577 0 0 1-1.088-.323 8.242 8.242 0 0 1-1.477-.936 17.31 17.31 0 0 1-5.299-7.514l-.116-.302a31.316 31.316 0 0 1-4.024 2.254 29.228 29.228 0 0 1-4.294 1.565 30.175 30.175 0 0 1-4.554.867l.07.347a17.564 17.564 0 0 1 .478 5.863 13 13 0 0 1-.712 3.616 12.589 12.589 0 0 1-.67 1.407 2.154 2.154 0 0 1-.376.478c-.64.661-1.405.667-2.029-.012a4.389 4.389 0 0 1-.629-.904c-.495-.929-.75-1.94-.932-2.97a18.801 18.801 0 0 1-.219-4.258 15.2 15.2 0 0 1 .464-3.087l.06-.259c.004-.022-.01-.048-.027-.119a28.335 28.335 0 0 1-13.027-4.021l-.177.393a17.774 17.774 0 0 1-4.971 6.664 6.139 6.139 0 0 1-1.938 1.12 1.945 1.945 0 0 1-1.048.113 1.145 1.145 0 0 1-.869-.722c-.228-.551-.187-1.124-.11-1.692a8.921 8.921 0 0 1 .693-2.293 18.099 18.099 0 0 1 4.265-6.075l.222-.209a.605.605 0 0 0 .059-.105 28.783 28.783 0 0 1-4.58-5.038l.37-.029 5.075-.007a.757.757 0 0 1 .596.262 23.641 23.641 0 0 0 6.339 4.647 22.515 22.515 0 0 0 7.997 2.377q11.371 1.105 19.563-6.895a1.23 1.23 0 0 1 .964-.393l4.731.008h.408l.028.095zm-7.045-24.157l1.306-.008c.482-.044.827.129 1.178.453l6.123 5.571.339.301.348-.3q3.16-2.876 6.314-5.757a.876.876 0 0 1 .676-.265l1.583.006v16.952c-.277.081-4.002.097-4.447.01v-8.585l-.086-.041-4.382 3.996-4.418-3.98-.084.031-.002 2.15q-.001 1.068 0 2.136v4.323h-4.413c-.083-.285-.121-16.034-.037-16.993zm-40.72.019h4.386c.089.282.106 16.566.015 16.977h-4.39c-.024-1.078-.008-2.153-.011-3.228V52.11h-5.436v6.394c-.331.099-4.076.108-4.448.02V41.587h4.43v5.983c.317.091 4.975.108 5.449.021l.004-1.46q.001-.763 0-1.526 0-.744 0-1.488v-1.531zm9.643 16.971v-16.92c.26-.085 9.902-.118 10.532-.033v3.606c-.141.01-.287.03-.433.03q-2.576.003-5.151.001h-.477v2.805h5.365v3.731H39.81c-.089.319-.113 2.545-.041 3.161.136.009.282.027.427.027q2.576.003 5.151.001h.478v3.591H35.291zm15.559.007c-.081-.454-.064-16.668.016-16.976h4.37v12.511c.189.01.336.024.484.024q2.595.002 5.19.001h.468v4.44H50.85z"/></svg>
