<svg xmlns="http://www.w3.org/2000/svg" width="200" viewBox="55 45 520 520">
    <path d="M178.216 226.107l-20.927-4.44a.503.503 0 0 0-.479.83l14.599 16.224a142.872 142.872 0 0 0-13.123 46.623l-42.33 13.77a1.01 1.01 0 0 0 0 1.916l42.308 13.763c2.024 19.836 8.13 38.786 17.901 55.867 3.007 5.255 10.212 6.176 14.493 1.895l.032-.03c2.96-2.96 3.518-7.523 1.446-11.16-10.264-17.994-16.16-38.789-16.223-60.931-.196-68.29 55.435-124.268 123.724-124.484 21.972-.07 42.639 5.604 60.584 15.597 3.635 2.024 8.16 1.445 11.103-1.497l.001-.002c4.35-4.349 3.299-11.632-2.076-14.626-16.722-9.32-35.19-15.154-54.496-17.123l-13.758-42.295a1.01 1.01 0 0 0-1.916 0l-13.759 42.294c-18.673 1.903-36.563 7.42-52.847 16.211l-16.353-14.716a.504.504 0 0 0-.83.48l4.642 21.873a144.308 144.308 0 0 0-22.408 18.917 141.889 141.889 0 0 0-19.308 25.044zm107.16 215.745l13.702 42.117a1.01 1.01 0 0 0 1.916 0l13.7-42.117c16.924-1.718 33.205-6.404 48.23-13.804l15.837 14.25a.505.505 0 0 0 .83-.478l-4.373-20.608a143.649 143.649 0 0 0 25.595-20.363c8.39-8.39 15.605-17.642 21.562-27.556l21.646 4.593a.503.503 0 0 0 .479-.83l-15.166-16.855c6.612-14.197 10.836-29.46 12.463-45.286l42.682-13.884a1.01 1.01 0 0 0 0-1.916l-42.682-13.885c-2.223-21.624-9.293-42.194-20.68-60.433-3.147-5.038-10.172-5.829-14.372-1.629a9.228 9.228 0 0 0-1.315 11.404c12.083 19.37 18.979 42.293 18.723 66.812C423.457 368.39 369.07 423.1 302.07 424.18c-24.345.392-47.137-6.27-66.472-18.065a9.223 9.223 0 0 0-11.323 1.364c-4.22 4.22-3.404 11.296 1.692 14.406 17.99 10.987 38.194 17.811 59.41 19.967zm-2.713 99.751L99.75 435.998a35.108 35.108 0 0 1-17.555-30.405v-211.21a35.108 35.108 0 0 1 17.555-30.408L282.663 58.37a35.114 35.114 0 0 1 35.11 0l182.914 105.605a35.111 35.111 0 0 1 17.555 30.407v211.21a35.11 35.11 0 0 1-17.555 30.406L317.772 541.603a35.108 35.108 0 0 1-35.109 0zm39.817-217.027L412.257 188.6c1.632-2.473-1.314-5.397-3.776-3.748l-135.15 90.608-90.518 135.215c-1.648 2.462 1.28 5.406 3.751 3.772l135.916-89.87z" />
</svg>
