<svg xmlns="http://www.w3.org/2000/svg" width="480" viewBox="0 0 480 526.3">
  <g transform="matrix(1.33333 0 0 -1.33333 0 526.301)">
    <path d="m0 0-32.014-10.414c-1.668-16.217-6.967-31.645-15.508-45.323-2.359-3.779-7.628-4.372-10.779-1.222a6.919 6.919 0 0 0-.985 8.553c9.061 14.527 14.233 31.719 14.042 50.109-.522 50.254-41.312 91.287-91.563 92.097-18.259.294-35.353-4.703-49.854-13.549a6.919 6.919 0 0 0-8.492 1.022c-3.166 3.166-2.552 8.473 1.269 10.806 13.492 8.239 28.645 13.356 44.557 14.973l10.276 31.59c.227.696 1.211.696 1.438 0l10.277-31.592a105.966 105.966 0 0 0 36.164-10.355l11.883 10.694a.379.379 0 0 0 .623-.36l-3.281-15.463A107.747 107.747 0 0 0-62.75 76.302a107.568 107.568 0 0 0 16.171-20.667l16.236 3.444a.377.377 0 0 0 .359-.622l-11.379-12.646a106.004 106.004 0 0 0 9.346-33.958L0 1.437C.696 1.211.696.227 0 0m-56.998-85.696L-158.361-17.74l-67.888 101.411c-1.236 1.847.96 4.055 2.813 2.829L-121.5 19.097l67.333-101.983c1.225-1.854-.985-4.048-2.831-2.81m-29.424-7.074c-12.54-6.988-26.391-11.354-40.87-12.832l-10.321-31.73c-.227-.695-1.211-.695-1.438 0l-10.319 31.724c-14.003 1.426-27.417 5.568-39.628 12.159l-12.271-11.041a.378.378 0 0 0-.623.359l3.482 16.409c-6 4.095-11.633 8.832-16.807 14.184a106.444 106.444 0 0 0-14.477 18.784l-15.699-3.331a.377.377 0 0 0-.359.622l10.954 12.173a107.145 107.145 0 0 0-9.84 34.961L-276.392 0c-.695.227-.695 1.211 0 1.437l31.735 10.324c1.519 14.876 6.093 29.089 13.422 41.899 2.255 3.941 7.659 4.632 10.869 1.422l.025-.024c2.219-2.22 2.638-5.642 1.083-8.369-7.698-13.496-12.119-29.092-12.166-45.699-.147-51.218 41.575-93.201 92.793-93.363 16.479-.053 31.978 4.203 45.437 11.698 2.726 1.518 6.121 1.084 8.327-1.122l.001-.002c3.263-3.263 2.475-8.724-1.556-10.971m98.578 195.433-137.186 79.204a26.33 26.33 0 0 1-26.332 0l-137.185-79.204a26.332 26.332 0 0 1-13.166-22.804V-78.549c0-9.408 5.019-18.1 13.166-22.805l137.185-79.204a26.336 26.336 0 0 1 26.332 0l137.186 79.204a26.335 26.335 0 0 1 13.166 22.805V79.859c0 9.408-5.019 18.1-13.166 22.804" style="fill:#fff;fill-opacity:1;fill-rule:nonzero;stroke:none" transform="translate(318.36 196.11)"/>
  </g>
</svg>
