<svg id="Layer_1" data-name="Layer 1" xmlns="http://www.w3.org/2000/svg" viewBox="0 0 558 127"><defs><style>.cls-1{fill:#c00;}.cls-2{fill:#fff;}</style></defs><title>operator_logo_lifecycle_manager_color</title><g id="Page-1"><path id="Fill-1" class="cls-1" d="M66.5,24A42.5,42.5,0,1,1,24,66.5,42.51,42.51,0,0,1,66.5,24"/><path id="Fill-5" class="cls-2" d="M41.53,73,76.08,29c.77,1.52,0,2.38-.3,3.29-3.14,8.61-6.23,17.28-9.52,25.84-.81,2.17-.46,2.68,1.82,2.68H90.32c.6,0,1.42-.3,1.77.36s-.41,1.16-.76,1.67L63,100.33c-.45.61-.9,1.52-1.72,1.07s-.3-1.37,0-2.13c2.18-8,4.26-15.91,6.54-23.86.56-1.87,0-2.28-1.72-2.23H45Z"/></g><path d="M122.73,52.79c0-5.19,2.46-10.86,9.21-10.86s9.21,5.67,9.21,10.86-2.43,10.86-9.21,10.86S122.73,58,122.73,52.79Zm14.7,0c0-3.45-1.41-7.41-5.49-7.41s-5.49,4.17-5.49,7.41c0,3.42,1.41,7.41,5.49,7.41S137.43,56,137.43,52.79Z"/><path d="M145.5,42.29h8.73c5.22,0,7.05,3.3,7.05,6.51,0,3-2,6.54-7.05,6.54H149.1v7.95h-3.6Zm12.06,6.51a2.9,2.9,0,0,0-3.15-3.09H149.1v6.21h5.31A2.94,2.94,0,0,0,157.56,48.8Z"/><path d="M164.58,42.29h13.68v3.39H168.18v5.07h6.21v3.39h-6.21V59.9h10.74v3.39H164.58Z"/><path d="M183,42.29h9.3c5.22,0,6.9,3.09,6.9,6.39a6.15,6.15,0,0,1-4.32,6l4.2,8.61H195L191,55.07h-4.38v8.22H183Zm9.36,9.36c2.34,0,3.12-1.44,3.12-3s-.66-3-3.12-3h-5.76v5.94Z"/><path d="M215.25,58.7h-8.31l-1.65,4.59h-3.81l7.83-21h3.57l7.8,21H216.9Zm-3.45-9.54a17.63,17.63,0,0,1-.69-2.13c-.18.63-.48,1.53-.69,2.13l-2.34,6.3h6Z"/><path d="M229.71,63.29h-3.6V45.74h-6V42.29h15.54v3.45h-6Z"/><path d="M237.69,52.79c0-5.19,2.46-10.86,9.21-10.86s9.21,5.67,9.21,10.86-2.43,10.86-9.21,10.86S237.69,58,237.69,52.79Zm14.7,0c0-3.45-1.41-7.41-5.49-7.41s-5.49,4.17-5.49,7.41c0,3.42,1.41,7.41,5.49,7.41S252.39,56,252.39,52.79Z"/><path d="M260.46,42.29h9.3c5.22,0,6.9,3.09,6.9,6.39a6.15,6.15,0,0,1-4.32,6l4.2,8.61h-4.05l-4.05-8.22h-4.38v8.22h-3.6Zm9.36,9.36c2.34,0,3.12-1.44,3.12-3s-.66-3-3.12-3h-5.76v5.94Z"/><path d="M124.33,72.29h4.8v23.4h13.6v4.6h-18.4Z"/><path d="M147.13,72.29h4.8v28h-4.8Z"/><path d="M158.93,72.29H177v4.52H163.73v6.76h8.48v4.52h-8.48v12.2h-4.8Z"/><path d="M181.61,72.29h18.23v4.52H186.41v6.76h8.27v4.52h-8.27v7.68h14.31v4.52H181.61Z"/><path d="M204.13,86.29c0-6.44,3.08-14.48,11.71-14.48,5.32,0,8.56,3,9.76,6l-4.32,2c-1.4-2.12-2.8-3.32-5.44-3.32-5.15,0-6.75,5.48-6.75,9.88,0,4.64,2,9.84,6.75,9.84,2.52,0,4.08-1.48,5.36-3.6l4.44,1.68c-1.72,3.88-4.8,6.56-9.8,6.56C207.13,100.77,204.13,93.21,204.13,86.29Z"/><path d="M238.33,89.33l-10.08-17h5.44l7,12.12,7-12.12h5.44l-10.12,17v11h-4.75Z"/><path d="M254.49,86.29c0-6.44,3.08-14.48,11.71-14.48,5.32,0,8.56,3,9.76,6l-4.32,2c-1.4-2.12-2.8-3.32-5.44-3.32-5.16,0-6.75,5.48-6.75,9.88,0,4.64,2,9.84,6.75,9.84,2.52,0,4.08-1.48,5.36-3.6L276,94.21c-1.72,3.88-4.8,6.56-9.8,6.56C257.49,100.77,254.49,93.21,254.49,86.29Z"/><path d="M281.29,72.29h4.79v23.4h13.6v4.6H281.29Z"/><path d="M303.89,72.29h18.23v4.52H308.68v6.76H317v4.52h-8.28v7.68H323v4.52H303.89Z"/><path d="M358.88,100.29V85.41c0-1,.08-2.6.16-3.36-.36,1.08-.88,2.44-1.28,3.44L351,100.77l-6.8-15.36c-.44-1-1-2.28-1.32-3.36.08.76.16,2.36.16,3.36v14.88h-4.8v-28H343l7.2,16.44c.28.68.56,1.44.76,2.08.2-.64.48-1.4.76-2.08L359,72.29h4.68v28Z"/><path d="M386.32,94.17H375.24l-2.2,6.12H368l10.44-28h4.76l10.4,28h-5Zm-4.6-12.72a23.51,23.51,0,0,1-.92-2.84c-.24.84-.64,2-.92,2.84l-3.12,8.4h8Z"/><path d="M415.24,100.29l-11.6-17.68c-.36-.56-.8-1.36-1.16-2.08a18.13,18.13,0,0,1,.12,2.08v17.68h-4.76v-28h4.64l11.32,17.4A21,21,0,0,1,415,91.81a20.54,20.54,0,0,1-.12-2.12V72.29h4.76v28Z"/><path d="M442.24,94.17H431.16l-2.2,6.12h-5.08l10.44-28h4.76l10.4,28h-5Zm-4.6-12.72a23.51,23.51,0,0,1-.92-2.84c-.24.84-.64,2-.92,2.84l-3.12,8.4h8Z"/><path d="M451.64,86.29c0-6.84,3.88-14.48,12.28-14.48,5.4,0,8,2.72,9.8,5.64l-4.28,2.44c-1.24-1.84-2.88-3.44-5.52-3.44-5.64,0-7.32,5.48-7.32,9.84,0,5,2.12,9.84,7.32,9.84a5.22,5.22,0,0,0,5.4-5.24v-.44H464.4V85.93h9.8v3.88c0,7.12-4.48,11-10.28,11C455.28,100.77,451.64,93.61,451.64,86.29Z"/><path d="M479.92,72.29h18.24v4.52H484.72v6.76H493v4.52h-8.28v7.68H499v4.52H479.92Z"/><path d="M504.44,72.29h12.4c7,0,9.2,4.12,9.2,8.52a8.2,8.2,0,0,1-5.76,8l5.6,11.48h-5.4l-5.4-11h-5.84v11h-4.8Zm12.48,12.48c3.12,0,4.16-1.92,4.16-4,0-1.88-.88-4-4.16-4h-7.68v7.92Z"/></svg>