<svg xmlns="http://www.w3.org/2000/svg" xmlns:xlink="http://www.w3.org/1999/xlink" viewBox="0 0 391.07 102"><path d="M49.158 3a47.5 47.5 0 1 1-47.5 47.5A47.5 47.5 0 0 1 49.158 3" fill="#c00"/><path d="M21.251 57.765L59.865 8.588c.861 1.699 0 2.66-.335 3.677l-10.64 28.88c-.905 2.425-.514 2.995 2.034 2.995h24.856c.671 0 1.576-.335 1.978.402s-.458 1.296-.849 1.866L45.258 88.31c-.503.682-1.006 1.699-1.922 1.196s-.335-1.531 0-2.381l7.298-26.667c.637-2.09 0-2.548-1.911-2.492H25.106z" fill="#fff"/><path d="M112.004 35.177c0-5.801 2.749-12.138 10.294-12.138s10.294 6.337 10.294 12.138-2.716 12.138-10.305 12.138S112.004 41 112.004 35.177zm16.429 0c0-3.856-1.576-8.282-6.136-8.282s-6.136 4.661-6.136 8.282c0 3.822 1.576 8.282 6.136 8.282s6.136-4.694 6.136-8.282zm9.019-11.735h9.757c5.834 0 7.824 3.688 7.824 7.276 0 3.353-2.235 7.309-7.824 7.309h-5.734v8.885h-4.024zm13.479 7.276a3.241 3.241 0 0 0-3.521-3.454h-5.935v6.941h5.935a3.286 3.286 0 0 0 3.521-3.487zm7.846-7.276h15.289v3.789H162.8v5.666h6.941v3.789H162.8v6.438h12.015v3.789h-16.038zm20.509 0h10.394c5.834 0 7.712 3.454 7.712 7.142a6.874 6.874 0 0 1-4.828 6.706l4.694 9.623h-4.526l-4.471-9.187h-4.895v9.187h-4.079zm10.461 10.461c2.615 0 3.487-1.609 3.487-3.353s-.738-3.353-3.487-3.353h-6.438v6.639zm25.661 7.879h-9.299l-1.844 5.13h-4.258l8.751-23.471h4.057l8.718 23.471h-4.247zm-3.856-10.662a19.704 19.704 0 0 1-.771-2.381l-.771 2.381-2.615 7.041h6.706zm20.017 15.792h-4.024V27.298h-6.706v-3.856h17.368v3.856h-6.706zm8.919-11.735c0-5.801 2.749-12.138 10.294-12.138s10.294 6.337 10.294 12.138-2.716 12.138-10.26 12.138S240.488 41 240.488 35.177zm16.429 0c0-3.856-1.576-8.282-6.136-8.282s-6.136 4.661-6.136 8.282c0 3.822 1.576 8.282 6.136 8.282s6.136-4.694 6.136-8.282zm9.02-11.735h10.394c5.834 0 7.712 3.454 7.712 7.142a6.874 6.874 0 0 1-4.828 6.706l4.694 9.623h-4.526l-4.526-9.187h-4.895v9.187h-4.024zm10.461 10.461c2.615 0 3.487-1.609 3.487-3.353s-.738-3.353-3.487-3.353h-6.438v6.639zM113.792 56.982h20.196v5.052h-14.831v7.544h9.466v5.052h-9.466v13.635h-5.365z"/><use xlink:href="#B"/><path d="M187.232 81.425h-12.417l-2.459 6.84h-5.678l11.668-31.294h5.409l11.612 31.294h-5.588zm-5.13-14.216a26.275 26.275 0 0 1-1.028-3.174l-1.028 3.174-3.487 9.388h8.941zm41.119 21.056v-16.63l.179-3.755-1.431 3.845-7.6 17.078-7.589-17.167a34.477 34.477 0 0 1-1.475-3.755 46.23 46.23 0 0 1 .179 3.755v16.631h-5.365V56.971h5.409l8.036 18.363.849 2.325.849-2.325 8.092-18.363h5.231v31.294zm12.975-31.283h20.375v5.052h-15.01v7.544h9.254v5.052h-9.243v8.584h15.949v5.052h-21.325zm25.17 0h5.499l3.711 18.408.536 2.995a25.949 25.949 0 0 1 .626-2.995l4.594-18.408h4.56l4.694 18.363a18.853 18.853 0 0 1 .626 2.995 29.071 29.071 0 0 1 .536-2.951l3.711-18.408h5.409l-6.706 31.294h-4.918l-5.097-19.335a17.278 17.278 0 0 1-.626-2.906 20.217 20.217 0 0 1-.581 2.861l-4.962 19.402h-4.906zm37.866 15.636c0-7.734 3.666-16.172 13.714-16.172s13.725 8.438 13.725 16.172-3.621 16.184-13.725 16.184-13.714-8.449-13.714-16.184zm21.895 0c0-5.141-2.101-11.042-8.181-11.042s-8.17 6.214-8.17 11.042c0 5.096 2.09 11.042 8.17 11.042s8.181-6.259 8.181-11.042z"/><use xlink:href="#B" x="194.024"/><path d="M374.874 72.574l-5.666 6.929v8.762h-5.365V56.971h5.365v15.021l11.869-15.01h6.259l-8.941 11.076 11.087 20.207h-6.259z"/><defs ><path id="B" d="M139.14 56.982h13.848c7.824 0 10.282 4.594 10.282 9.511a9.165 9.165 0 0 1-6.438 8.941l6.259 12.831h-6.035l-6.035-12.294h-6.516v12.294h-5.365zm13.937 13.937c3.487 0 4.649-2.146 4.649-4.471 0-2.101-.984-4.471-4.649-4.471h-8.572v8.852z"/></defs></svg>
