<svg xmlns="http://www.w3.org/2000/svg" width="100" height="100" fill="#0f1689" stroke="null"><path fill="#c00" d="M50 13.438A36.562 36.562 0 1 1 13.438 50 36.562 36.562 0 0 1 50 13.438"/><path fill="#fff" d="M28.519 55.592L58.241 17.74c.662 1.308 0 2.047-.258 2.83L49.794 42.8c-.697 1.867-.396 2.306 1.566 2.306h19.132c.516 0 1.213-.258 1.523.31s-.353.998-.654 1.437L46.998 79.103c-.387.525-.774 1.308-1.48.92s-.258-1.179 0-1.832l5.618-20.526c.49-1.609 0-1.961-1.471-1.918H31.487l-2.968-.155z"/></svg>
