<svg viewBox="0 0 63 63" xmlns="http://www.w3.org/2000/svg"><g fill="#fff" fill-rule="evenodd"><path d="M31.251 0c17.228 0 31.247 14.062 31.247 31.346 0 17.286-14.018 31.347-31.247 31.347C14.018 62.693 0 48.632 0 31.346 0 14.062 14.017 0 31.251 0zM14 36.412h17.023c1.031 0 1.547.515 1.031 1.546-1.547 5.67-3.095 10.825-4.643 16.495 0 .516-.515 1.031 0 1.547.516 0 .516-.516 1.032-1.031l19.602-25.773s.516-.516.516-1.031H32.054c-1.547 0-1.547-.515-1.031-2.062 2.579-6.185 4.642-11.856 6.706-18.04 0-.516.515-1.032 0-2.063l-23.73 30.412zM94.288 15.36c0 1.28-.208 2.46-.624 3.54s-1.002 2.01-1.758 2.79-1.664 1.39-2.724 1.83-2.238.66-3.534.66c-1.288 0-2.462-.22-3.522-.66s-1.97-1.05-2.73-1.83-1.348-1.71-1.764-2.79-.624-2.26-.624-3.54.208-2.46.624-3.54 1.004-2.012 1.764-2.796 1.67-1.396 2.73-1.836 2.234-.66 3.522-.66c1.296 0 2.474.22 3.534.66s1.968 1.052 2.724 1.836 1.342 1.716 1.758 2.796.624 2.26.624 3.54zm-2.868 0c0-.992-.134-1.884-.402-2.676s-.652-1.464-1.152-2.016-1.106-.976-1.818-1.272-1.512-.444-2.4-.444c-.88 0-1.676.148-2.388.444s-1.32.72-1.824 1.272-.892 1.224-1.164 2.016-.408 1.684-.408 2.676c0 1 .136 1.896.408 2.688s.66 1.462 1.164 2.01 1.112.968 1.824 1.26 1.508.438 2.388.438c.888 0 1.688-.146 2.4-.438s1.318-.712 1.818-1.26.884-1.218 1.152-2.01.402-1.688.402-2.688zm7.824 5.568c.36.464.754.79 1.182.978.428.188.902.282 1.422.282 1.008 0 1.794-.368 2.358-1.104s.846-1.832.846-3.288c0-.752-.064-1.394-.192-1.926s-.312-.966-.552-1.302-.532-.58-.876-.732-.732-.228-1.164-.228c-.656 0-1.222.142-1.698.426s-.918.69-1.326 1.218v5.676zm-.132-7.392c.512-.6 1.094-1.084 1.746-1.452s1.41-.552 2.274-.552c.688 0 1.312.138 1.872.414s1.04.678 1.44 1.206.71 1.182.93 1.962.33 1.674.33 2.682c0 .904-.122 1.746-.366 2.526s-.594 1.456-1.05 2.028-1.008 1.02-1.656 1.344-1.38.486-2.196.486c-.72 0-1.33-.116-1.83-.348a4.738 4.738 0 01-1.362-.96v5.196h-2.58V11.76h1.56c.352 0 .576.164.672.492l.216 1.284zM118.24 16.5c0-.432-.062-.834-.186-1.206s-.306-.696-.546-.972-.538-.492-.894-.648-.766-.234-1.23-.234c-.936 0-1.672.268-2.208.804s-.876 1.288-1.02 2.256h6.084zm-6.156 1.584c.032.696.14 1.298.324 1.806s.43.93.738 1.266.676.586 1.104.75.906.246 1.434.246c.504 0 .94-.058 1.308-.174s.688-.244.96-.384.504-.268.696-.384.368-.174.528-.174a.55.55 0 01.48.24l.732.948c-.304.36-.648.664-1.032.912s-.792.45-1.224.606-.876.268-1.332.336-.9.102-1.332.102c-.848 0-1.634-.142-2.358-.426s-1.352-.702-1.884-1.254-.948-1.236-1.248-2.052c-.3-.816-.45-1.756-.45-2.82 0-.848.134-1.64.402-2.376s.652-1.376 1.152-1.92c.5-.544 1.108-.974 1.824-1.29s1.526-.474 2.43-.474c.752 0 1.448.122 2.088.366s1.192.602 1.656 1.074.826 1.05 1.086 1.734.39 1.462.39 2.334c0 .4-.044.668-.132.804s-.248.204-.48.204h-7.86zm13.308-4.056c.384-.776.848-1.386 1.392-1.83s1.196-.666 1.956-.666c.264 0 .512.03.744.09s.44.15.624.27l-.18 1.944c-.032.136-.082.23-.15.282s-.158.078-.27.078c-.12 0-.292-.022-.516-.066s-.46-.066-.708-.066c-.36 0-.678.052-.954.156s-.524.256-.744.456-.414.444-.582.732-.324.616-.468.984V24h-2.58V11.76h1.5c.272 0 .46.05.564.15s.176.274.216.522l.156 1.596zm12.78 4.62c-.92.032-1.696.106-2.328.222s-1.144.264-1.536.444-.674.394-.846.642-.258.52-.258.816c0 .288.046.534.138.738s.22.372.384.504.356.228.576.288.462.09.726.09c.672 0 1.25-.126 1.734-.378s.954-.618 1.41-1.098v-2.268zm-6.84-5.184c1.384-1.288 3.032-1.932 4.944-1.932.704 0 1.33.114 1.878.342s1.008.55 1.38.966.656.91.852 1.482.294 1.206.294 1.902V24h-1.152c-.248 0-.436-.038-.564-.114s-.236-.23-.324-.462l-.252-.996c-.312.28-.62.53-.924.75s-.618.406-.942.558-.672.266-1.044.342-.782.114-1.23.114c-.496 0-.958-.068-1.386-.204s-.798-.342-1.11-.618-.558-.618-.738-1.026-.27-.888-.27-1.44c0-.472.126-.932.378-1.38s.668-.85 1.248-1.206 1.344-.65 2.292-.882 2.118-.364 3.51-.396v-.816c0-.88-.188-1.536-.564-1.968s-.928-.648-1.656-.648c-.496 0-.912.062-1.248.186s-.628.258-.876.402-.468.278-.66.402-.396.186-.612.186c-.176 0-.326-.046-.45-.138s-.226-.206-.306-.342l-.468-.84zm16.116 10.728c-1.016 0-1.798-.286-2.346-.858s-.822-1.378-.822-2.418v-7.128h-1.344c-.144 0-.268-.046-.372-.138s-.156-.23-.156-.414v-1.044l1.98-.288.564-3.54c.04-.136.108-.246.204-.33s.224-.126.384-.126h1.32v4.02h3.396v1.86h-3.396v6.948c0 .44.108.776.324 1.008s.504.348.864.348c.2 0 .372-.026.516-.078s.268-.108.372-.168.194-.116.27-.168.15-.078.222-.078c.144 0 .26.08.348.24l.768 1.26c-.4.352-.872.622-1.416.81s-1.104.282-1.68.282zm10.056-12.624c.904 0 1.722.148 2.454.444s1.356.716 1.872 1.26.914 1.204 1.194 1.98.42 1.648.42 2.616-.14 1.84-.42 2.616-.678 1.438-1.194 1.986-1.14.97-1.872 1.266-1.55.444-2.454.444c-.912 0-1.734-.148-2.466-.444s-1.358-.718-1.878-1.266-.92-1.21-1.2-1.986-.42-1.648-.42-2.616.14-1.84.42-2.616.68-1.436 1.2-1.98 1.146-.964 1.878-1.26 1.554-.444 2.466-.444zm0 10.596c1.104 0 1.926-.37 2.466-1.11s.81-1.798.81-3.174-.27-2.438-.81-3.186-1.362-1.122-2.466-1.122c-1.12 0-1.952.374-2.496 1.122s-.816 1.81-.816 3.186.272 2.434.816 3.174 1.376 1.11 2.496 1.11zm10.848-8.136c.384-.776.848-1.386 1.392-1.83s1.196-.666 1.956-.666c.264 0 .512.03.744.09s.44.15.624.27l-.18 1.944c-.032.136-.082.23-.15.282s-.158.078-.27.078c-.12 0-.292-.022-.516-.066s-.46-.066-.708-.066c-.36 0-.678.052-.954.156s-.524.256-.744.456-.414.444-.582.732-.324.616-.468.984V24h-2.58V11.76h1.5c.272 0 .46.05.564.15s.176.274.216.522l.156 1.596zM83.308 30.482v8.298h10.134v3.402H83.308V53h-4.23V27.08h16.164v3.402H83.308zm17.568 7.56c.576-1.164 1.272-2.079 2.088-2.745s1.794-.999 2.934-.999c.396 0 .768.045 1.116.135.348.09.66.225.936.405l-.27 2.916c-.048.204-.123.345-.225.423s-.237.117-.405.117c-.18 0-.438-.033-.774-.099s-.69-.099-1.062-.099c-.54 0-1.017.078-1.431.234s-.786.384-1.116.684-.621.666-.873 1.098-.486.924-.702 1.476V53h-3.87V34.64h2.25c.408 0 .69.075.846.225.156.15.264.411.324.783l.234 2.394zm19.17 6.93c-1.38.048-2.544.159-3.492.333s-1.716.396-2.304.666c-.588.27-1.011.591-1.269.963s-.387.78-.387 1.224c0 .432.069.801.207 1.107s.33.558.576.756.534.342.864.432c.33.09.693.135 1.089.135 1.008 0 1.875-.189 2.601-.567s1.431-.927 2.115-1.647v-3.402zm-10.26-7.776c2.076-1.932 4.548-2.898 7.416-2.898 1.056 0 1.995.171 2.817.513s1.512.825 2.07 1.449.984 1.365 1.278 2.223.441 1.809.441 2.853V53h-1.728c-.372 0-.654-.057-.846-.171s-.354-.345-.486-.693l-.378-1.494c-.468.42-.93.795-1.386 1.125-.456.33-.927.609-1.413.837s-1.008.399-1.566.513-1.173.171-1.845.171c-.744 0-1.437-.102-2.079-.306s-1.197-.513-1.665-.927-.837-.927-1.107-1.539-.405-1.332-.405-2.16c0-.708.189-1.398.567-2.07s1.002-1.275 1.872-1.809 2.016-.975 3.438-1.323 3.177-.546 5.265-.594v-1.224c0-1.32-.282-2.304-.846-2.952s-1.392-.972-2.484-.972c-.744 0-1.368.093-1.872.279s-.942.387-1.314.603-.702.417-.99.603-.594.279-.918.279c-.264 0-.489-.069-.675-.207s-.339-.309-.459-.513l-.702-1.26zM128.326 53V34.64h2.34c.528 0 .864.246 1.008.738l.252 1.602c.336-.384.684-.735 1.044-1.053s.747-.594 1.161-.828.858-.417 1.332-.549.987-.198 1.539-.198c.588 0 1.128.084 1.62.252s.927.408 1.305.72.705.69.981 1.134.504.942.684 1.494a5.641 5.641 0 012.448-2.754c.516-.288 1.065-.501 1.647-.639s1.173-.207 1.773-.207c.984 0 1.863.156 2.637.468s1.428.765 1.962 1.359.939 1.323 1.215 2.187.414 1.848.414 2.952V53h-3.87V41.318c0-1.296-.279-2.271-.837-2.925s-1.383-.981-2.475-.981c-.492 0-.954.084-1.386.252s-.81.414-1.134.738-.579.729-.765 1.215-.279 1.053-.279 1.701V53h-3.87V41.318c0-1.344-.27-2.331-.81-2.961-.54-.63-1.332-.945-2.376-.945-.72 0-1.386.183-1.998.549s-1.176.867-1.692 1.503V53h-3.87zm41.94-11.25c0-.648-.093-1.251-.279-1.809s-.459-1.044-.819-1.458-.807-.738-1.341-.972-1.149-.351-1.845-.351c-1.404 0-2.508.402-3.312 1.206s-1.314 1.932-1.53 3.384h9.126zm-9.234 2.376c.048 1.044.21 1.947.486 2.709s.645 1.395 1.107 1.899 1.014.879 1.656 1.125 1.359.369 2.151.369c.756 0 1.41-.087 1.962-.261s1.032-.366 1.44-.576c.408-.21.756-.402 1.044-.576s.552-.261.792-.261c.312 0 .552.12.72.36l1.098 1.422c-.456.54-.972.996-1.548 1.368s-1.188.675-1.836.909-1.314.402-1.998.504-1.35.153-1.998.153c-1.272 0-2.451-.213-3.537-.639s-2.028-1.053-2.826-1.881-1.422-1.854-1.872-3.078-.675-2.634-.675-4.23c0-1.272.201-2.46.603-3.564s.978-2.064 1.728-2.88 1.662-1.461 2.736-1.935 2.289-.711 3.645-.711c1.128 0 2.172.183 3.132.549s1.788.903 2.484 1.611 1.239 1.575 1.629 2.601.585 2.193.585 3.501c0 .6-.066 1.002-.198 1.206s-.372.306-.72.306h-11.79zm41.886-9.486L197.032 53h-3.078c-.36 0-.612-.234-.756-.702l-3.654-11.43a19.425 19.425 0 01-.468-1.926 23.004 23.004 0 01-.486 1.944l-3.708 11.412c-.132.468-.414.702-.846.702h-2.934l-5.886-18.36h3.06c.3 0 .549.075.747.225.198.15.327.327.387.531l3.06 10.692c.12.492.225.969.315 1.431s.171.921.243 1.377c.12-.456.246-.915.378-1.377s.27-.939.414-1.431l3.438-10.746c.06-.216.183-.393.369-.531s.411-.207.675-.207h1.692c.276 0 .51.069.702.207s.318.315.378.531l3.348 10.746c.144.492.279.972.405 1.44s.243.936.351 1.404c.084-.456.174-.918.27-1.386s.21-.954.342-1.458l3.114-10.692c.072-.216.204-.396.396-.54s.426-.216.702-.216h2.916zm10.458-.288c1.356 0 2.583.222 3.681.666s2.034 1.074 2.808 1.89 1.371 1.806 1.791 2.97.63 2.472.63 3.924-.21 2.76-.63 3.924-1.017 2.157-1.791 2.979-1.71 1.455-2.808 1.899-2.325.666-3.681.666c-1.368 0-2.601-.222-3.699-.666s-2.037-1.077-2.817-1.899-1.38-1.815-1.8-2.979-.63-2.472-.63-3.924.21-2.76.63-3.924 1.02-2.154 1.8-2.97 1.719-1.446 2.817-1.89 2.331-.666 3.699-.666zm0 15.894c1.656 0 2.889-.555 3.699-1.665.81-1.11 1.215-2.697 1.215-4.761s-.405-3.657-1.215-4.779-2.043-1.683-3.699-1.683c-1.68 0-2.928.561-3.744 1.683s-1.224 2.715-1.224 4.779.408 3.651 1.224 4.761c.816 1.11 2.064 1.665 3.744 1.665zm16.272-12.204c.576-1.164 1.272-2.079 2.088-2.745s1.794-.999 2.934-.999c.396 0 .768.045 1.116.135.348.09.66.225.936.405l-.27 2.916c-.048.204-.123.345-.225.423s-.237.117-.405.117c-.18 0-.438-.033-.774-.099s-.69-.099-1.062-.099c-.54 0-1.017.078-1.431.234s-.786.384-1.116.684-.621.666-.873 1.098-.486.924-.702 1.476V53h-3.87V34.64h2.25c.408 0 .69.075.846.225.156.15.264.411.324.783l.234 2.394zm13.5-11.682v15.444h.828c.264 0 .48-.036.648-.108s.342-.222.522-.45l5.148-5.886c.18-.24.378-.42.594-.54s.492-.18.828-.18h3.51l-6.192 6.984a4.71 4.71 0 01-1.188 1.116c.24.168.45.357.63.567.18.21.354.447.522.711L255.604 53h-3.456c-.312 0-.579-.051-.801-.153s-.417-.291-.585-.567l-5.31-7.2c-.18-.276-.36-.453-.54-.531s-.45-.117-.81-.117h-.954V53h-3.87V26.36h3.87z"/></g></svg>