<?xml version="1.0" encoding="UTF-8"?>
<svg version="1.1" viewBox="0 0 63 63" xmlns="http://www.w3.org/2000/svg">
<title>operator-framework-logo-lite</title>
<desc>Created with Sketch.</desc>
<g fill="none" fill-rule="evenodd">
<g transform="translate(-438 -4629)" fill="#c00">
<g transform="translate(65 3888)">
<g transform="translate(362 740)">
<g transform="translate(11 1)">
<path d="m31.251 4.1211e-13c17.228 0 31.247 14.062 31.247 31.346 0 17.286-14.018 31.347-31.247 31.347-17.233 0-31.251-14.061-31.251-31.347 0-17.284 14.017-31.346 31.251-31.346zm-17.251 36.412h2.0634 14.959c1.0317 0 1.5475 0.51546 1.0317 1.5464-1.5475 5.6701-3.0951 10.825-4.6426 16.495 0 0.51546-0.51584 1.0309 0 1.5464 0.51584 0 0.51584-0.51546 1.0317-1.0309l19.602-25.773s0.51584-0.51546 0.51584-1.0309h-1.0317-15.475c-1.5475 0-1.5475-0.51546-1.0317-2.0619 2.5792-6.1856 4.6426-11.856 6.706-18.041 0-0.51546 0.51584-1.0309 0-2.0619l-23.729 30.412z"/>
<path d="m94.288 15.36c0 1.28-0.208 2.46-0.624 3.54s-1.002 2.01-1.758 2.79-1.664 1.39-2.724 1.83-2.238 0.66-3.534 0.66c-1.288 0-2.462-0.22-3.522-0.66s-1.97-1.05-2.73-1.83-1.348-1.71-1.764-2.79-0.624-2.26-0.624-3.54 0.208-2.46 0.624-3.54 1.004-2.012 1.764-2.796 1.67-1.396 2.73-1.836 2.234-0.66 3.522-0.66c1.296 0 2.474 0.22 3.534 0.66s1.968 1.052 2.724 1.836 1.342 1.716 1.758 2.796 0.624 2.26 0.624 3.54zm-2.868 0c0-0.992-0.134-1.884-0.402-2.676s-0.652-1.464-1.152-2.016-1.106-0.976-1.818-1.272-1.512-0.444-2.4-0.444c-0.88 0-1.676 0.148-2.388 0.444s-1.32 0.72-1.824 1.272-0.892 1.224-1.164 2.016-0.408 1.684-0.408 2.676c0 1 0.136 1.896 0.408 2.688s0.66 1.462 1.164 2.01 1.112 0.968 1.824 1.26 1.508 0.438 2.388 0.438c0.888 0 1.688-0.146 2.4-0.438s1.318-0.712 1.818-1.26 0.884-1.218 1.152-2.01 0.402-1.688 0.402-2.688zm7.824 5.568c0.36 0.464 0.754 0.79 1.182 0.978 0.428 0.188 0.902 0.282 1.422 0.282 1.008 0 1.794-0.368 2.358-1.104s0.846-1.832 0.846-3.288c0-0.752-0.063999-1.394-0.192-1.926s-0.312-0.966-0.552-1.302-0.532-0.58-0.876-0.732-0.732-0.228-1.164-0.228c-0.656 0-1.222 0.142-1.698 0.426s-0.918 0.69-1.326 1.218v5.676zm-0.132-7.392c0.512-0.6 1.094-1.084 1.746-1.452s1.41-0.552 2.274-0.552c0.688 0 1.312 0.138 1.872 0.414s1.04 0.678 1.44 1.206 0.71 1.182 0.93 1.962 0.33 1.674 0.33 2.682c0 0.904-0.122 1.746-0.366 2.526s-0.594 1.456-1.05 2.028-1.008 1.02-1.656 1.344-1.38 0.486-2.196 0.486c-0.72 0-1.33-0.116-1.83-0.348-0.5-0.232-0.954-0.552-1.362-0.96v5.196h-2.58v-16.308h1.56c0.352 0 0.576 0.164 0.672 0.492l0.216 1.284zm19.128 2.964c0-0.432-0.061999-0.834-0.186-1.206s-0.306-0.696-0.546-0.972-0.538-0.492-0.894-0.648-0.766-0.234-1.23-0.234c-0.936 0-1.672 0.268-2.208 0.804s-0.876 1.288-1.02 2.256h6.084zm-6.156 1.584c0.032 0.696 0.14 1.298 0.324 1.806s0.43 0.93 0.738 1.266 0.676 0.586 1.104 0.75 0.906 0.246 1.434 0.246c0.504 0 0.94-0.057999 1.308-0.174s0.688-0.244 0.96-0.384 0.504-0.268 0.696-0.384 0.368-0.174 0.528-0.174c0.208 0 0.368 0.079999 0.48 0.24l0.732 0.948c-0.304 0.36-0.648 0.664-1.032 0.912s-0.792 0.45-1.224 0.606-0.876 0.268-1.332 0.336-0.9 0.102-1.332 0.102c-0.848 0-1.634-0.142-2.358-0.426s-1.352-0.702-1.884-1.254-0.948-1.236-1.248-2.052c-0.3-0.816-0.45-1.756-0.45-2.82 0-0.848 0.134-1.64 0.402-2.376s0.652-1.376 1.152-1.92c0.5-0.544 1.108-0.974 1.824-1.29s1.526-0.474 2.43-0.474c0.752 0 1.448 0.122 2.088 0.366s1.192 0.602 1.656 1.074 0.826 1.05 1.086 1.734 0.39 1.462 0.39 2.334c0 0.4-0.044 0.668-0.132 0.804s-0.248 0.204-0.48 0.204h-7.86zm13.308-4.056c0.384-0.776 0.848-1.386 1.392-1.83s1.196-0.666 1.956-0.666c0.264 0 0.512 0.03 0.744 0.09s0.44 0.15 0.624 0.27l-0.18 1.944c-0.032 0.136-0.082 0.23-0.15 0.282s-0.158 0.078-0.27 0.078c-0.12 0-0.292-0.022-0.516-0.066s-0.46-0.066-0.708-0.066c-0.36 0-0.678 0.052-0.954 0.156s-0.524 0.256-0.744 0.456-0.414 0.444-0.582 0.732-0.324 0.616-0.468 0.984v7.608h-2.58v-12.24h1.5c0.272 0 0.46 0.05 0.564 0.15s0.176 0.274 0.216 0.522l0.156 1.596zm12.78 4.62c-0.92 0.032-1.696 0.106-2.328 0.222s-1.144 0.264-1.536 0.444-0.674 0.394-0.846 0.642-0.258 0.52-0.258 0.816c0 0.288 0.046 0.534 0.138 0.738s0.22 0.372 0.384 0.504 0.356 0.228 0.576 0.288 0.462 0.09 0.726 0.09c0.672 0 1.25-0.126 1.734-0.378s0.954-0.618 1.41-1.098v-2.268zm-6.84-5.184c1.384-1.288 3.032-1.932 4.944-1.932 0.704 0 1.33 0.114 1.878 0.342s1.008 0.55 1.38 0.966 0.656 0.91 0.852 1.482 0.294 1.206 0.294 1.902v7.776h-1.152c-0.248 0-0.436-0.038-0.564-0.114s-0.236-0.23-0.324-0.462l-0.252-0.996c-0.312 0.28-0.62 0.53-0.924 0.75s-0.618 0.406-0.942 0.558-0.672 0.266-1.044 0.342-0.782 0.114-1.23 0.114c-0.496 0-0.958-0.067999-1.386-0.204s-0.798-0.342-1.11-0.618-0.558-0.618-0.738-1.026-0.27-0.888-0.27-1.44c0-0.472 0.126-0.932 0.378-1.38s0.668-0.85 1.248-1.206 1.344-0.65 2.292-0.882 2.118-0.364 3.51-0.396v-0.816c0-0.88-0.188-1.536-0.564-1.968s-0.928-0.648-1.656-0.648c-0.496 0-0.912 0.061999-1.248 0.186s-0.628 0.258-0.876 0.402-0.468 0.278-0.66 0.402-0.396 0.186-0.612 0.186c-0.176 0-0.326-0.046-0.45-0.138s-0.226-0.206-0.306-0.342l-0.468-0.84zm16.116 10.728c-1.016 0-1.798-0.286-2.346-0.858s-0.822-1.378-0.822-2.418v-7.128h-1.344c-0.144 0-0.268-0.046-0.372-0.138s-0.156-0.23-0.156-0.414v-1.044l1.98-0.288 0.564-3.54c0.04-0.136 0.108-0.246 0.204-0.33s0.224-0.126 0.384-0.126h1.32v4.02h3.396v1.86h-3.396v6.948c0 0.44 0.108 0.776 0.324 1.008s0.504 0.348 0.864 0.348c0.2 0 0.372-0.026 0.516-0.078s0.268-0.108 0.372-0.168 0.194-0.116 0.27-0.168 0.15-0.078 0.222-0.078c0.144 0 0.26 0.079999 0.348 0.24l0.768 1.26c-0.4 0.352-0.872 0.622-1.416 0.81s-1.104 0.282-1.68 0.282zm10.056-12.624c0.904 0 1.722 0.148 2.454 0.444s1.356 0.716 1.872 1.26 0.914 1.204 1.194 1.98 0.42 1.648 0.42 2.616-0.14 1.84-0.42 2.616-0.678 1.438-1.194 1.986-1.14 0.97-1.872 1.266-1.55 0.444-2.454 0.444c-0.912 0-1.734-0.148-2.466-0.444s-1.358-0.718-1.878-1.266-0.92-1.21-1.2-1.986-0.42-1.648-0.42-2.616 0.14-1.84 0.42-2.616 0.68-1.436 1.2-1.98 1.146-0.964 1.878-1.26 1.554-0.444 2.466-0.444zm0 10.596c1.104 0 1.926-0.37 2.466-1.11s0.81-1.798 0.81-3.174-0.27-2.438-0.81-3.186-1.362-1.122-2.466-1.122c-1.12 0-1.952 0.374-2.496 1.122s-0.816 1.81-0.816 3.186 0.272 2.434 0.816 3.174 1.376 1.11 2.496 1.11zm10.848-8.136c0.384-0.776 0.848-1.386 1.392-1.83s1.196-0.666 1.956-0.666c0.264 0 0.512 0.03 0.744 0.09s0.44 0.15 0.624 0.27l-0.18 1.944c-0.032 0.136-0.082 0.23-0.15 0.282s-0.158 0.078-0.27 0.078c-0.12 0-0.292-0.022-0.516-0.066s-0.46-0.066-0.708-0.066c-0.36 0-0.678 0.052-0.954 0.156s-0.524 0.256-0.744 0.456-0.414 0.444-0.582 0.732-0.324 0.616-0.468 0.984v7.608h-2.58v-12.24h1.5c0.272 0 0.46 0.05 0.564 0.15s0.176 0.274 0.216 0.522l0.156 1.596zm-85.044 16.454v8.298h10.134v3.402h-10.134v10.818h-4.23v-25.92h16.164v3.402h-11.934zm17.568 7.56c0.576-1.164 1.272-2.079 2.088-2.745s1.794-0.999 2.934-0.999c0.396 0 0.768 0.045 1.116 0.135 0.348 0.09 0.66 0.225 0.936 0.405l-0.27 2.916c-0.048 0.204-0.123 0.345-0.225 0.423s-0.237 0.117-0.405 0.117c-0.18 0-0.438-0.033-0.774-0.099s-0.69-0.099-1.062-0.099c-0.54 0-1.017 0.077999-1.431 0.234s-0.786 0.384-1.116 0.684-0.621 0.666-0.873 1.098-0.486 0.924-0.702 1.476v11.412h-3.87v-18.36h2.25c0.408 0 0.69 0.074999 0.846 0.225 0.156 0.15 0.264 0.411 0.324 0.783l0.234 2.394zm19.17 6.93c-1.38 0.048-2.544 0.159-3.492 0.333s-1.716 0.396-2.304 0.666c-0.588 0.27-1.011 0.591-1.269 0.963s-0.387 0.78-0.387 1.224c0 0.432 0.068999 0.801 0.207 1.107s0.33 0.558 0.576 0.756 0.534 0.342 0.864 0.432c0.33 0.09 0.693 0.135 1.089 0.135 1.008 0 1.875-0.189 2.601-0.567s1.431-0.927 2.115-1.647v-3.402zm-10.26-7.776c2.076-1.932 4.548-2.898 7.416-2.898 1.056 0 1.995 0.171 2.817 0.513s1.512 0.825 2.07 1.449 0.984 1.365 1.278 2.223 0.441 1.809 0.441 2.853v11.664h-1.728c-0.372 0-0.654-0.056999-0.846-0.171s-0.354-0.345-0.486-0.693l-0.378-1.494c-0.468 0.42-0.93 0.795-1.386 1.125-0.456 0.33-0.927 0.609-1.413 0.837s-1.008 0.399-1.566 0.513-1.173 0.171-1.845 0.171c-0.744 0-1.437-0.102-2.079-0.306s-1.197-0.513-1.665-0.927-0.837-0.927-1.107-1.539-0.405-1.332-0.405-2.16c0-0.708 0.189-1.398 0.567-2.07s1.002-1.275 1.872-1.809 2.016-0.975 3.438-1.323 3.177-0.546 5.265-0.594v-1.224c0-1.32-0.282-2.304-0.846-2.952s-1.392-0.972-2.484-0.972c-0.744 0-1.368 0.092999-1.872 0.279s-0.942 0.387-1.314 0.603-0.702 0.417-0.99 0.603-0.594 0.279-0.918 0.279c-0.264 0-0.489-0.068999-0.675-0.207s-0.339-0.309-0.459-0.513l-0.702-1.26zm18.54 15.804v-18.36h2.34c0.528 0 0.864 0.246 1.008 0.738l0.252 1.602c0.336-0.384 0.684-0.735 1.044-1.053s0.747-0.594 1.161-0.828 0.858-0.417 1.332-0.549 0.987-0.198 1.539-0.198c0.588 0 1.128 0.083999 1.62 0.252s0.927 0.408 1.305 0.72 0.705 0.69 0.981 1.134 0.504 0.942 0.684 1.494c0.276-0.636 0.624-1.182 1.044-1.638s0.888-0.828 1.404-1.116 1.065-0.501 1.647-0.639 1.173-0.207 1.773-0.207c0.984 0 1.863 0.156 2.637 0.468s1.428 0.765 1.962 1.359 0.939 1.323 1.215 2.187 0.414 1.848 0.414 2.952v11.682h-3.87v-11.682c0-1.296-0.279-2.271-0.837-2.925s-1.383-0.981-2.475-0.981c-0.492 0-0.954 0.083999-1.386 0.252s-0.81 0.414-1.134 0.738-0.579 0.729-0.765 1.215-0.279 1.053-0.279 1.701v11.682h-3.87v-11.682c0-1.344-0.27-2.331-0.81-2.961-0.54-0.63-1.332-0.945-2.376-0.945-0.72 0-1.386 0.183-1.998 0.549s-1.176 0.867-1.692 1.503v13.536h-3.87zm41.94-11.25c0-0.648-0.092999-1.251-0.279-1.809s-0.459-1.044-0.819-1.458-0.807-0.738-1.341-0.972-1.149-0.351-1.845-0.351c-1.404 0-2.508 0.402-3.312 1.206s-1.314 1.932-1.53 3.384h9.126zm-9.234 2.376c0.048 1.044 0.21 1.947 0.486 2.709s0.645 1.395 1.107 1.899 1.014 0.879 1.656 1.125 1.359 0.369 2.151 0.369c0.756 0 1.41-0.086999 1.962-0.261s1.032-0.366 1.44-0.576c0.408-0.21 0.756-0.402 1.044-0.576s0.552-0.261 0.792-0.261c0.312 0 0.552 0.12 0.72 0.36l1.098 1.422c-0.456 0.54-0.972 0.996-1.548 1.368s-1.188 0.675-1.836 0.909-1.314 0.402-1.998 0.504-1.35 0.153-1.998 0.153c-1.272 0-2.451-0.213-3.537-0.639s-2.028-1.053-2.826-1.881-1.422-1.854-1.872-3.078-0.675-2.634-0.675-4.23c0-1.272 0.201-2.46 0.603-3.564s0.978-2.064 1.728-2.88 1.662-1.461 2.736-1.935 2.289-0.711 3.645-0.711c1.128 0 2.172 0.183 3.132 0.549s1.788 0.903 2.484 1.611 1.239 1.575 1.629 2.601 0.585 2.193 0.585 3.501c0 0.6-0.065999 1.002-0.198 1.206s-0.372 0.306-0.72 0.306h-11.79zm41.886-9.486l-5.886 18.36h-3.078c-0.36 0-0.612-0.234-0.756-0.702l-3.654-11.43c-0.096-0.324-0.183-0.648-0.261-0.972s-0.147-0.642-0.207-0.954c-0.132 0.648-0.294 1.296-0.486 1.944l-3.708 11.412c-0.132 0.468-0.414 0.702-0.846 0.702h-2.934l-5.886-18.36h3.06c0.3 0 0.549 0.074999 0.747 0.225 0.198 0.15 0.327 0.327 0.387 0.531l3.06 10.692c0.12 0.492 0.225 0.969 0.315 1.431s0.171 0.921 0.243 1.377c0.12-0.456 0.246-0.915 0.378-1.377s0.27-0.939 0.414-1.431l3.438-10.746c0.06-0.216 0.183-0.393 0.369-0.531s0.411-0.207 0.675-0.207h1.692c0.276 0 0.51 0.068999 0.702 0.207s0.318 0.315 0.378 0.531l3.348 10.746c0.144 0.492 0.279 0.972 0.405 1.44s0.243 0.936 0.351 1.404c0.084-0.456 0.174-0.918 0.27-1.386s0.21-0.954 0.342-1.458l3.114-10.692c0.072-0.216 0.204-0.396 0.396-0.54s0.426-0.216 0.702-0.216h2.916zm10.458-0.288c1.356 0 2.583 0.222 3.681 0.666s2.034 1.074 2.808 1.89 1.371 1.806 1.791 2.97 0.63 2.472 0.63 3.924-0.21 2.76-0.63 3.924-1.017 2.157-1.791 2.979-1.71 1.455-2.808 1.899-2.325 0.666-3.681 0.666c-1.368 0-2.601-0.222-3.699-0.666s-2.037-1.077-2.817-1.899-1.38-1.815-1.8-2.979-0.63-2.472-0.63-3.924 0.21-2.76 0.63-3.924 1.02-2.154 1.8-2.97 1.719-1.446 2.817-1.89 2.331-0.666 3.699-0.666zm0 15.894c1.656 0 2.889-0.55499 3.699-1.665 0.81-1.11 1.215-2.697 1.215-4.761s-0.405-3.657-1.215-4.779-2.043-1.683-3.699-1.683c-1.68 0-2.928 0.56099-3.744 1.683s-1.224 2.715-1.224 4.779 0.408 3.651 1.224 4.761c0.816 1.11 2.064 1.665 3.744 1.665zm16.272-12.204c0.576-1.164 1.272-2.079 2.088-2.745s1.794-0.999 2.934-0.999c0.396 0 0.768 0.045 1.116 0.135 0.348 0.09 0.66 0.225 0.936 0.405l-0.27 2.916c-0.048 0.204-0.123 0.345-0.225 0.423s-0.237 0.117-0.405 0.117c-0.18 0-0.438-0.033-0.774-0.099s-0.69-0.099-1.062-0.099c-0.54 0-1.017 0.077999-1.431 0.234s-0.786 0.384-1.116 0.684-0.621 0.666-0.873 1.098-0.486 0.924-0.702 1.476v11.412h-3.87v-18.36h2.25c0.408 0 0.69 0.074999 0.846 0.225 0.156 0.15 0.264 0.411 0.324 0.783l0.234 2.394zm13.5-11.682v15.444h0.828c0.264 0 0.48-0.036 0.648-0.108s0.342-0.222 0.522-0.45l5.148-5.886c0.18-0.24 0.378-0.42 0.594-0.54s0.492-0.18 0.828-0.18h3.51l-6.192 6.984c-0.36 0.468-0.756 0.84-1.188 1.116 0.24 0.168 0.45 0.357 0.63 0.567 0.18 0.21 0.354 0.447 0.522 0.711l6.606 8.982h-3.456c-0.312 0-0.579-0.051-0.801-0.153s-0.417-0.291-0.585-0.567l-5.31-7.2c-0.18-0.276-0.36-0.453-0.54-0.531s-0.45-0.117-0.81-0.117h-0.954v8.568h-3.87v-26.64h3.87z"/>
</g>
</g>
</g>
</g>
</g>
</svg>
