<?xml version="1.0" standalone="no"?>
<!DOCTYPE svg PUBLIC "-//W3C//DTD SVG 20010904//EN"
 "http://www.w3.org/TR/2001/REC-SVG-20010904/DTD/svg10.dtd">
<svg version="1.0" xmlns="http://www.w3.org/2000/svg"
 width="350.000000pt" height="117.000000pt" viewBox="0 0 595.000000 301.000000"
 preserveAspectRatio="xMidYMid meet">
<metadata>
Created by potrace 1.15, written by Peter Selinger 2001-2017
</metadata>
<g transform="translate(0.000000,301.000000) scale(0.100000,-0.100000)"
fill="#1C2B39" stroke="none">
<path d="M1420 2911 c-88 -46 -366 -206 -533 -305 -43 -25 -80 -46 -82 -46 -3
0 -45 -25 -96 -55 -50 -30 -93 -55 -95 -55 -2 0 -27 -14 -56 -31 -29 -17 -80
-47 -113 -67 -106 -62 -131 -81 -156 -125 l-24 -42 -3 -624 c-2 -413 1 -642 8
-675 16 -78 54 -113 240 -219 91 -52 224 -128 297 -170 137 -80 155 -90 263
-152 36 -20 70 -40 75 -45 10 -7 26 -16 205 -117 86 -48 101 -53 157 -53 42 0
73 6 95 18 68 39 247 141 373 214 282 163 406 234 540 311 158 90 190 115 216
172 17 38 19 78 19 683 0 786 17 711 -190 830 -58 33 -161 92 -230 132 -69 40
-143 83 -165 95 -22 12 -74 42 -115 67 -41 25 -95 56 -120 70 -25 14 -117 67
-205 117 -148 85 -163 91 -215 91 -35 0 -69 -7 -90 -19z m134 -467 l37 -112
52 -6 c29 -4 91 -20 137 -36 l85 -29 47 40 c53 45 53 45 34 -29 l-14 -52 41
-29 c59 -41 135 -116 187 -184 37 -50 47 -58 69 -54 14 3 44 9 66 13 l40 7
-47 -52 -47 -52 16 -37 c19 -46 53 -170 53 -197 0 -18 19 -27 120 -60 66 -21
120 -43 120 -47 0 -4 -54 -24 -119 -45 l-119 -38 -6 -45 c-9 -69 -43 -167 -84
-245 -31 -58 -42 -71 -65 -73 -63 -7 -72 35 -28 124 49 98 73 183 78 280 13
207 -63 400 -214 546 -131 127 -274 188 -459 196 -131 5 -228 -15 -348 -74
-73 -35 -77 -36 -101 -20 -29 19 -33 56 -7 79 35 32 173 89 258 106 l87 18 40
123 c26 83 42 119 47 110 4 -8 24 -65 44 -126z m-379 -479 c511 -337 433 -268
607 -532 83 -125 196 -295 250 -377 55 -81 102 -155 105 -164 12 -30 2 -24
-592 375 l-190 128 -256 385 c-227 339 -279 426 -236 392 7 -5 147 -98 312
-207z m-297 -21 c29 -20 28 -39 -8 -115 -47 -102 -64 -181 -64 -304 0 -196 62
-344 204 -485 148 -148 267 -201 470 -208 140 -5 205 8 319 59 40 18 75 28 88
24 28 -7 46 -39 38 -67 -9 -26 -126 -81 -221 -103 -121 -28 -111 -19 -150
-134 -19 -57 -38 -110 -43 -119 -6 -11 -19 16 -46 99 -20 63 -41 120 -47 127
-6 6 -22 12 -37 12 -34 0 -141 31 -208 60 l-53 22 -42 -38 c-48 -43 -56 -36
-38 37 10 44 10 44 -32 79 -68 57 -111 102 -156 161 l-43 57 -54 -13 c-30 -7
-55 -10 -55 -7 0 3 16 24 35 48 l35 43 -24 73 c-13 40 -30 100 -36 134 l-12
60 -119 38 c-65 21 -119 41 -119 45 0 4 53 24 118 45 l119 38 17 81 c20 93 70
221 98 249 22 22 37 23 66 2z"/>
<path d="M3222 1671 l-152 -349 0 -86 0 -86 225 0 225 0 0 -115 0 -115 130 0
130 0 0 115 0 115 60 0 60 0 0 95 0 95 -60 0 -60 0 0 125 0 125 -114 0 -113 0
-12 -100 c-6 -56 -11 -112 -11 -125 0 -25 -1 -25 -95 -25 l-94 0 33 78 c18 42
74 172 124 287 50 116 92 216 94 224 2 9 -31 26 -97 52 -55 21 -105 38 -110
39 -6 0 -79 -157 -163 -349z"/>
<path d="M5052 1671 l-152 -349 0 -86 0 -86 225 0 225 0 0 -115 0 -115 130 0
130 0 0 115 0 115 60 0 60 0 0 95 0 95 -60 0 -60 0 0 125 0 125 -114 0 -113 0
-12 -100 c-6 -56 -11 -112 -11 -125 0 -25 -1 -25 -95 -25 l-94 0 33 78 c18 42
74 172 124 287 50 116 92 216 94 224 2 9 -31 26 -97 52 -55 21 -105 38 -110
39 -6 0 -79 -157 -163 -349z"/>
<path d="M4263 1996 c-131 -42 -224 -164 -258 -340 -20 -104 -19 -315 1 -413
32 -158 106 -268 213 -320 48 -24 71 -28 161 -31 89 -3 114 0 162 18 119 45
209 166 244 330 22 100 22 320 1 418 -37 168 -123 287 -242 331 -65 25 -213
28 -282 7z m188 -192 c19 -9 38 -32 50 -59 52 -118 51 -473 -1 -592 -40 -92
-162 -98 -203 -10 -31 65 -41 141 -41 307 0 166 10 242 41 307 27 59 93 79
154 47z"/>
</g>
</svg>
