<svg xmlns="http://www.w3.org/2000/svg" width="100" height="100"><path stroke="null" fill-rule="evenodd" fill="#1b1817" d="M49.996 6.203c-24.796 0-44.901 20.104-44.901 44.906 0 19.84 12.865 36.669 30.709 42.61 2.247.411 3.065-.976 3.065-2.167l-.061-7.636c-12.491 2.713-15.126-6.021-15.126-6.021-2.043-5.185-4.987-6.566-4.987-6.566-4.077-2.787.309-2.732.309-2.732 4.507.32 6.878 4.628 6.878 4.628 4.005 6.861 10.511 4.879 13.069 3.733.408-2.903 1.566-4.882 2.85-6.004-9.971-1.133-20.455-4.987-20.455-22.194 0-4.901 1.75-8.91 4.623-12.049-.463-1.136-2.004-5.701.438-11.884 0 0 3.771-1.207 12.35 4.604 3.581-.995 7.424-1.494 11.242-1.511 3.812.017 7.655.515 11.242 1.511 8.573-5.811 12.336-4.604 12.336-4.604 2.451 6.183.91 10.748.447 11.884 2.878 3.14 4.617 7.148 4.617 12.049 0 17.251-10.5 21.047-20.504 22.158 1.613 1.387 3.049 4.127 3.049 8.317l-.055 12.317c0 1.202.808 2.6 3.087 2.161 17.83-5.952 30.685-22.77 30.685-42.605 0-24.802-20.107-44.906-44.909-44.906"/></svg>
