<svg xmlns="http://www.w3.org/2000/svg" width="452" height="115.009" xmlns:v="https://vecta.io/nano"><path fill="#717074" d="M57.812 5.005c-28.995 0-52.5 23.505-52.5 52.5s23.505 52.5 52.5 52.5 52.5-23.505 52.5-52.5-23.505-52.5-52.5-52.5zm0 96c-24.024 0-43.5-19.476-43.5-43.5s19.476-43.5 43.5-43.5 43.5 19.476 43.5 43.5h0c0 24.024-19.476 43.5-43.5 43.5z"/><circle fill="#fff" r="44.284" cy="57.632" cx="58.065"/><circle fill="#1d428a" r="28.737" cy="58.035" cx="58.065"/><path fill="#0091da" d="M98.584 56.94l-10.46-3.4c-1.91-13.61-12.79-24.38-26.46-26.1.05-.06.08-.16.05-.26l-3.41-10.46c-.18-.54-.95-.54-1.11 0l-3.41 10.46c-.03.1 0 .21.06.27-5.94.76-11.34 3.24-15.71 6.91l-.09-.06-6.48-3.3c-.36-.18-.74.2-.56.54l3.31 6.51c.01.03.03.05.05.07-3.62 4.3-6.08 9.61-6.89 15.43l-10.43 3.39a.59.59 0 0 0 0 1.13l10.35 3.37c1.64 13.91 12.65 24.99 26.51 26.75l3.29 10.09c.16.56.93.56 1.11 0l3.28-10.08c6.07-.74 11.6-3.28 16.04-7.06l6.17 3.14c.36.18.72-.2.54-.56l-3.14-6.18a30.35 30.35 0 0 0 7.01-16.09l10.38-3.38a.59.59 0 0 0 0-1.13zm-40.78 27.28c-14.57 0-26.41-11.85-26.41-26.41s11.84-26.4 26.41-26.4c14.56 0 26.4 11.84 26.4 26.4s-11.84 26.41-26.4 26.41z"/><path fill="#00c1d5" d="M63.618 63.015L30.185 85.089a.67.67 0 0 1-.922-.928l22.278-33.23 33.245-22.255a.67.67 0 0 1 .927.922L63.618 63.015z"/><path fill="#717074" d="M137.245 37.49h4.688v22.842l20.918-22.842h6.191L151.67 56.365l18.514 22.421h-6.071l-15.689-19.235-6.492 6.853v12.383h-4.688V37.489h.001zm46.314 39.733c-2.625-1.522-4.669-3.637-6.131-6.342s-2.194-5.78-2.194-9.228V37.489h4.688v24.164c0 2.605.541 4.939 1.623 7.003s2.574 3.678 4.478 4.839 4.058 1.743 6.462 1.743 4.558-.58 6.462-1.743 3.396-2.774 4.479-4.839 1.623-4.397 1.623-7.003V37.489h4.688v24.164c0 3.447-.732 6.522-2.194 9.228s-3.507 4.819-6.131 6.342-5.601 2.284-8.927 2.284-6.302-.762-8.926-2.285zm36.397-39.733h18.935c2.204 0 4.167.441 5.891 1.322s3.065 2.104 4.027 3.667 1.442 3.327 1.442 5.29c0 2.084-.491 3.827-1.473 5.229s-2.455 2.686-4.418 3.847c2.404 1.202 4.257 2.716 5.56 4.538s1.954 3.857 1.954 6.102c0 2.164-.521 4.108-1.563 5.831s-2.495 3.065-4.358 4.027-3.978 1.442-6.342 1.442h-19.656V37.49h.001zm17.732 17.492c2.284 0 4.157-.621 5.62-1.863s2.194-2.825 2.194-4.749-.732-3.506-2.194-4.749-3.336-1.864-5.62-1.864h-13.044v13.225h13.044zm.722 19.536c2.564 0 4.659-.711 6.282-2.134s2.435-3.256 2.435-5.501-.812-4.077-2.435-5.5-3.717-2.134-6.282-2.134h-13.766v15.269h13.766zm26.749-32.58v13.585h22.421v4.448h-22.421v14.366h24.886v4.448H260.41V37.49h29.635v4.448h-24.886zm60.229 27.471h-23.022l-4.147 9.377h-5.109l18.213-41.296h5.109l18.214 41.296h-5.109l-4.149-9.377zm-1.924-4.449l-9.558-21.7-9.617 21.7h19.175zm17.433-27.47h16.771c2.804 0 5.369.562 7.693 1.683s4.157 2.695 5.501 4.719 2.014 4.298 2.014 6.822-.672 4.8-2.014 6.823-3.177 3.598-5.501 4.719-4.89 1.683-7.693 1.683h-12.083v14.848h-4.688V37.49zm15.93 22c3.405 0 6.141-.781 8.205-2.344s3.096-3.707 3.096-6.432-1.032-4.869-3.096-6.432-4.8-2.344-8.205-2.344h-11.241V59.49h11.241zm23.442-22h16.771c2.804 0 5.369.562 7.693 1.683s4.157 2.695 5.501 4.719 2.014 4.298 2.014 6.822-.672 4.8-2.014 6.823-3.177 3.598-5.501 4.719-4.89 1.683-7.693 1.683h-12.083v14.848h-4.688V37.49zm15.93 22c3.405 0 6.141-.781 8.205-2.344s3.096-3.707 3.096-6.432-1.032-4.869-3.096-6.432-4.8-2.344-8.205-2.344h-11.241V59.49h11.241zm19.655 13.405l2.946-3.667c1.883 1.884 3.927 3.347 6.131 4.388s4.668 1.563 7.394 1.563c2.044 0 3.787-.331 5.229-.992s2.534-1.542 3.276-2.645 1.112-2.294 1.112-3.577c0-2.083-.872-3.676-2.615-4.778s-4.579-2.113-8.506-3.036c-3.005-.721-5.48-1.522-7.424-2.404s-3.446-2.074-4.508-3.577-1.593-3.396-1.593-5.681c0-2.164.601-4.147 1.803-5.951s2.855-3.216 4.959-4.238 4.458-1.533 7.063-1.533c2.925 0 5.561.511 7.904 1.533s4.538 2.475 6.582 4.358l-2.885 3.667c-1.764-1.683-3.647-2.985-5.65-3.907s-4.068-1.383-6.191-1.383c-1.644 0-3.146.321-4.509.962s-2.425 1.513-3.186 2.615-1.143 2.275-1.143 3.517c0 1.964.861 3.456 2.585 4.478s4.568 2.014 8.536 2.976c4.407 1.042 7.764 2.455 10.068 4.238s3.456 4.358 3.456 7.725c0 2.244-.551 4.268-1.652 6.07s-2.756 3.227-4.96 4.269-4.849 1.562-7.935 1.562c-6.409 0-11.839-2.184-16.287-6.552z"/></svg>