<svg xmlns="http://www.w3.org/2000/svg" width="140" height="140"><path fill="#e01e5a" d="M34.4 86.2c0 7.1-5.8 12.9-12.9 12.9S8.6 93.3 8.6 86.2s5.8-12.9 12.9-12.9h12.9v12.9zm6.5 0c0-7.1 5.8-12.9 12.9-12.9s12.9 5.8 12.9 12.9v32.3c0 7.1-5.8 12.9-12.9 12.9s-12.9-5.8-12.9-12.9V86.2z"/><path fill="#36c5f0" d="M53.8 34.4c-7.1 0-12.9-5.8-12.9-12.9S46.7 8.6 53.8 8.6s12.9 5.8 12.9 12.9v12.9H53.8zm0 6.5c7.1 0 12.9 5.8 12.9 12.9s-5.8 12.9-12.9 12.9H21.5c-7.1 0-12.9-5.8-12.9-12.9s5.8-12.9 12.9-12.9h32.3z"/><path fill="#2eb67d" d="M105.6 53.8c0-7.1 5.8-12.9 12.9-12.9s12.9 5.8 12.9 12.9-5.8 12.9-12.9 12.9h-12.9V53.8zm-6.5 0c0 7.1-5.8 12.9-12.9 12.9s-12.9-5.8-12.9-12.9V21.5c0-7.1 5.8-12.9 12.9-12.9s12.9 5.8 12.9 12.9v32.3z"/><path fill="#ecb22e" d="M86.2 105.6c7.1 0 12.9 5.8 12.9 12.9s-5.8 12.9-12.9 12.9-12.9-5.8-12.9-12.9v-12.9h12.9zm0-6.5c-7.1 0-12.9-5.8-12.9-12.9s5.8-12.9 12.9-12.9h32.3c7.1 0 12.9 5.8 12.9 12.9s-5.8 12.9-12.9 12.9H86.2z"/></svg>
