<svg xmlns="http://www.w3.org/2000/svg" width="100" height="100"><path stroke="null" fill="#1d9bf0" d="M85.846 31.61l.055 2.392c0 24.439-18.605 52.625-52.625 52.625v-.015A52.36 52.36 0 0 1 4.925 78.32c1.461.176 2.93.264 4.402.267a37.14 37.14 0 0 0 22.971-7.933 18.52 18.52 0 0 1-17.279-12.844c2.772.535 5.629.425 8.35-.319A18.5 18.5 0 0 1 8.532 39.363v-.234a18.38 18.38 0 0 0 8.394 2.315 18.52 18.52 0 0 1-5.724-24.696c9.39 11.555 23.245 18.579 38.118 19.323-1.491-6.424.546-13.155 5.351-17.671a18.52 18.52 0 0 1 26.168.802c4.142-.817 8.112-2.337 11.745-4.49-1.381 4.281-4.27 7.918-8.131 10.229 3.666-.432 7.248-1.414 10.621-2.912-2.483 3.721-5.611 6.962-9.229 9.581z"/></svg>
